<?xml version="1.0" encoding="UTF-8" ?>
<!DOCTYPE svg PUBLIC "-//W3C//DTD SVG 1.1//EN" "http://www.w3.org/Graphics/SVG/1.1/DTD/svg11.dtd">
<svg width="1024pt" height="1024pt" viewBox="0 0 1024 1024" version="1.1" xmlns="http://www.w3.org/2000/svg">
<g id="#0303037c">
<path fill="#030303" opacity="0.49" d=" M 473.71 40.64 C 475.80 39.20 478.20 38.32 480.68 37.78 C 483.34 43.23 484.46 49.20 485.44 55.13 C 486.34 60.76 489.50 65.62 490.99 71.07 C 487.94 66.81 485.25 62.13 484.51 56.86 C 483.63 50.93 483.10 44.83 480.35 39.39 C 478.14 39.82 475.93 40.25 473.71 40.64 Z" />
</g>
<g id="#010101ff">
<path fill="#010101" opacity="1.00" d=" M 372.56 40.53 C 373.23 40.31 374.56 39.86 375.23 39.64 C 374.71 46.48 376.11 53.18 377.79 59.77 C 378.25 60.28 378.71 60.80 379.18 61.31 C 380.66 66.48 382.73 71.44 384.52 76.50 C 385.32 77.27 386.14 78.03 386.96 78.80 C 388.19 80.90 389.48 82.99 390.79 85.05 C 392.61 87.88 394.53 90.68 397.02 92.98 C 400.97 96.67 404.49 100.86 408.92 104.02 C 412.53 106.63 416.68 108.35 420.48 110.64 C 423.21 112.24 425.74 114.15 428.56 115.59 C 432.20 117.45 436.29 118.21 439.88 120.15 C 442.57 121.75 445.14 123.56 447.94 124.97 C 452.57 127.34 457.62 128.72 462.48 130.54 C 464.80 131.74 466.66 133.61 468.61 135.31 C 469.82 135.43 471.04 135.55 472.26 135.69 C 476.49 139.09 482.14 140.05 486.14 143.82 C 491.36 147.51 496.33 151.59 500.01 156.90 C 500.67 156.30 501.35 155.69 502.03 155.09 C 507.51 154.10 512.06 150.18 517.81 150.29 C 518.16 149.59 518.52 148.89 518.89 148.19 C 521.00 148.31 523.12 148.44 525.25 148.57 C 525.95 147.87 526.66 147.17 527.37 146.47 C 530.20 146.41 533.02 146.33 535.86 146.25 C 536.27 145.68 537.09 144.54 537.50 143.97 C 533.07 140.96 528.63 137.96 524.56 134.47 C 522.58 132.70 520.10 131.68 517.57 130.98 C 512.83 127.32 506.97 125.49 502.37 121.64 C 497.67 117.76 491.73 115.89 486.80 112.35 C 479.51 107.33 472.23 101.13 469.31 92.47 C 466.78 86.64 467.68 80.17 467.63 74.00 C 467.74 68.43 467.05 62.79 468.16 57.28 C 469.31 51.53 471.62 46.10 473.71 40.64 C 475.93 40.25 478.14 39.82 480.35 39.39 C 483.10 44.83 483.63 50.93 484.51 56.86 C 485.25 62.13 487.94 66.81 490.99 71.07 C 495.24 78.02 501.54 83.23 507.07 89.10 C 507.78 89.19 509.21 89.38 509.93 89.47 C 508.98 89.86 508.04 90.26 507.10 90.65 C 507.77 90.70 509.11 90.81 509.79 90.86 C 519.10 96.21 528.20 101.90 537.52 107.22 C 544.82 110.56 551.53 115.11 557.48 120.48 C 559.12 121.95 561.12 122.93 563.08 123.91 C 564.42 127.03 566.44 129.77 568.88 132.11 C 573.21 136.44 575.62 142.14 578.63 147.36 C 581.09 151.95 586.30 153.75 590.03 157.07 C 595.17 161.55 600.17 166.18 605.00 170.99 C 608.35 174.28 611.03 178.16 614.14 181.66 C 614.19 178.56 613.82 175.46 612.94 172.48 C 611.41 167.12 610.78 161.49 608.53 156.35 C 607.33 153.54 605.64 150.98 603.94 148.45 C 606.56 148.44 609.18 148.40 611.81 148.34 C 612.25 149.11 612.69 149.87 613.14 150.64 C 615.11 150.64 617.08 150.63 619.06 150.63 C 619.42 151.07 620.15 151.96 620.51 152.40 C 621.87 152.65 623.25 152.91 624.63 153.16 C 630.75 155.02 637.05 156.78 642.18 160.78 C 650.60 165.88 656.90 173.85 661.13 182.65 C 661.90 184.41 662.33 186.29 662.75 188.16 C 664.03 194.60 665.71 201.18 664.74 207.79 C 664.50 208.87 664.18 209.93 663.86 211.00 C 662.07 207.33 660.56 203.34 657.50 200.51 C 654.16 197.43 649.70 194.88 645.00 195.63 C 637.79 196.56 631.41 200.46 624.28 201.76 C 624.31 202.94 624.36 204.11 624.42 205.29 C 632.90 208.13 639.98 213.71 646.90 219.20 C 649.12 220.91 650.56 223.74 653.17 224.86 C 660.15 225.75 667.25 224.54 674.25 225.49 L 674.81 226.01 C 675.09 226.25 675.65 226.75 675.92 227.00 C 682.39 228.12 688.86 229.44 694.78 232.41 C 695.77 232.86 696.75 233.34 697.74 233.81 C 699.63 231.02 701.38 228.11 703.54 225.51 C 706.29 222.17 710.02 219.88 713.58 217.52 C 717.53 214.99 721.51 212.40 725.93 210.74 C 729.13 209.51 732.61 209.46 735.99 209.42 C 739.11 209.45 742.35 209.39 745.31 210.57 C 747.85 211.57 750.19 213.00 752.56 214.35 C 754.52 217.08 756.61 219.72 758.87 222.22 C 760.78 231.15 765.47 240.26 762.55 249.50 C 760.86 254.99 760.76 260.78 761.49 266.44 C 762.67 265.58 763.86 264.74 765.03 263.85 C 768.84 260.70 772.52 257.19 774.88 252.79 C 775.96 251.01 776.84 248.90 778.78 247.87 C 780.20 247.42 781.64 247.02 783.09 246.63 C 787.64 254.26 790.37 263.06 790.42 271.96 C 790.43 276.99 790.50 282.02 790.42 287.05 C 790.33 292.28 788.81 297.33 787.39 302.32 C 786.92 303.85 786.52 305.41 785.85 306.87 C 784.44 309.37 782.88 311.78 781.47 314.28 C 778.41 318.92 774.04 322.45 770.35 326.55 C 770.07 325.82 769.51 324.34 769.23 323.60 C 766.16 321.06 763.38 318.22 760.45 315.54 C 759.45 314.78 758.47 313.71 757.14 313.68 C 754.96 316.11 753.42 319.01 751.58 321.68 C 749.19 325.20 746.00 328.05 743.05 331.07 C 741.64 332.37 740.31 333.85 738.55 334.67 C 738.12 334.76 737.25 334.92 736.82 335.01 C 737.36 329.01 739.18 323.11 738.77 317.05 C 738.58 315.40 738.36 313.33 736.67 312.53 C 733.42 310.80 729.84 309.75 726.30 308.78 C 724.57 308.18 722.98 309.29 721.58 310.15 C 718.66 316.67 712.75 320.90 708.16 326.13 C 705.28 327.98 702.09 329.27 698.91 330.48 C 699.51 325.45 701.07 320.63 702.74 315.87 C 703.90 312.36 704.76 307.99 702.17 304.89 C 700.11 303.56 697.62 303.16 695.31 302.47 C 691.67 300.71 688.38 297.91 684.29 297.32 C 681.36 299.36 679.61 302.60 677.06 305.04 C 674.50 307.78 670.83 308.93 667.42 310.19 C 667.68 302.99 667.44 295.45 664.06 288.91 C 662.30 288.02 660.34 287.65 658.46 287.14 C 658.15 286.82 657.54 286.19 657.24 285.87 C 655.52 284.96 653.80 284.05 652.09 283.14 C 647.62 289.46 641.63 294.84 634.24 297.42 C 634.01 291.95 634.45 286.47 634.07 281.01 C 633.98 277.80 630.71 276.12 628.22 274.83 C 625.74 273.68 623.16 272.77 620.58 271.89 C 618.96 274.45 617.36 277.13 614.91 278.99 C 611.03 281.97 606.41 283.74 601.98 285.72 C 601.64 280.38 601.55 275.02 601.71 269.67 C 597.80 268.77 593.72 268.73 589.89 270.00 C 582.37 272.31 574.54 273.27 566.90 275.09 C 556.41 277.49 545.79 279.30 535.29 281.62 C 530.49 282.69 525.57 283.14 520.80 284.32 C 519.80 284.95 518.89 285.72 517.98 286.47 C 520.66 290.58 523.08 294.93 526.53 298.48 C 529.15 301.18 531.80 303.88 534.47 306.54 C 538.15 310.26 543.07 312.49 546.57 316.42 C 548.92 319.02 551.16 321.78 554.17 323.67 C 559.65 327.11 563.91 332.27 569.99 334.77 C 572.29 332.56 574.42 330.07 577.23 328.46 C 579.86 327.08 582.52 325.72 584.90 323.92 C 585.64 323.35 586.40 322.82 587.19 322.30 C 591.63 320.47 596.08 318.63 600.28 316.27 C 602.33 315.22 604.69 315.29 606.93 315.19 C 614.99 315.07 623.05 315.31 631.11 315.14 L 631.49 315.59 C 631.79 315.94 632.37 316.64 632.66 316.99 C 642.00 319.65 649.95 325.40 658.79 329.21 C 663.17 331.10 666.72 334.34 669.74 337.97 C 672.17 339.19 674.65 340.45 676.58 342.43 C 690.25 356.41 704.26 370.07 717.99 384.01 C 724.15 391.12 733.00 394.86 740.06 400.90 C 743.22 403.56 746.78 405.73 750.66 407.19 C 757.49 409.79 764.22 412.78 771.39 414.39 C 778.49 415.99 785.64 417.75 792.97 417.75 C 799.58 417.76 806.28 418.03 812.82 416.75 C 824.20 414.37 836.00 412.43 846.13 406.35 L 846.70 406.03 C 850.61 404.60 854.67 403.36 858.18 401.04 C 860.43 399.65 862.47 397.85 864.95 396.84 C 866.39 396.64 867.84 396.52 869.30 396.41 C 864.95 401.03 860.37 405.42 855.98 409.99 C 852.88 413.19 849.84 416.56 845.98 418.87 C 840.13 422.39 833.95 425.37 827.54 427.69 C 824.54 428.72 821.83 430.36 819.27 432.18 C 817.59 432.50 815.90 432.81 814.23 433.15 C 803.79 436.23 792.78 437.05 781.96 436.26 C 777.03 435.35 772.16 434.02 767.11 434.04 C 761.09 432.13 755.14 429.98 749.12 428.05 C 746.47 427.25 744.13 425.74 741.85 424.23 C 738.84 422.23 735.45 420.98 732.12 419.68 C 728.42 417.98 725.26 415.38 721.97 413.05 C 717.39 409.64 712.40 406.73 708.42 402.59 C 702.22 396.12 695.80 389.86 689.40 383.60 C 686.96 381.24 685.15 378.36 683.23 375.60 C 681.10 372.49 678.12 370.14 675.49 367.50 C 670.72 362.68 665.85 357.98 661.18 353.07 C 658.76 351.84 656.42 350.43 654.42 348.58 C 649.62 344.17 643.95 340.87 638.25 337.79 C 632.28 334.77 625.84 332.39 619.08 332.21 C 610.38 331.95 601.12 332.56 593.47 337.16 C 591.15 338.59 588.89 340.13 586.68 341.71 C 585.03 343.04 583.25 344.38 582.30 346.33 C 582.37 347.65 582.90 348.89 583.41 350.11 C 587.72 353.79 591.84 357.70 595.82 361.75 C 600.27 357.41 606.50 356.23 612.25 354.58 C 612.77 359.46 611.58 364.26 609.88 368.80 C 609.22 369.58 608.57 370.37 607.93 371.17 C 608.51 373.71 608.81 376.47 610.51 378.57 C 612.25 380.79 614.31 382.81 616.70 384.34 C 618.54 385.50 620.82 385.32 622.91 385.58 C 625.43 383.47 628.11 381.48 631.18 380.22 C 632.53 379.62 633.90 379.06 635.29 378.51 C 635.31 384.04 634.85 389.56 633.94 395.03 C 632.58 396.22 631.24 397.43 629.91 398.65 C 634.98 402.50 639.19 407.30 643.91 411.55 C 649.13 406.72 654.88 402.44 661.34 399.40 C 662.09 406.48 661.99 413.76 659.26 420.44 C 658.81 420.70 657.91 421.22 657.45 421.48 C 657.41 423.17 657.36 424.87 657.32 426.57 C 661.61 428.48 666.06 431.20 670.96 430.39 C 675.06 429.80 678.33 427.00 681.15 424.15 C 685.23 420.27 686.93 414.28 692.13 411.51 C 692.49 416.49 692.58 421.48 692.49 426.47 L 691.94 426.79 C 691.66 426.95 691.11 427.26 690.83 427.42 C 689.90 434.05 688.92 440.79 685.95 446.86 C 683.17 452.50 680.37 458.11 677.60 463.75 C 673.11 470.93 667.08 476.91 661.19 482.93 C 655.82 485.40 652.01 490.40 646.29 492.19 C 642.14 493.64 637.97 495.09 633.64 495.87 C 626.55 496.71 619.35 496.66 612.27 495.88 C 607.14 495.07 602.55 492.41 598.29 489.59 C 595.66 487.69 592.92 485.67 591.27 482.82 C 590.64 481.55 590.08 480.26 589.53 478.98 C 596.67 477.90 604.15 477.82 610.85 474.82 C 614.18 473.40 616.89 470.92 619.30 468.28 C 620.73 466.71 622.10 465.09 623.49 463.48 C 623.58 462.96 623.77 461.91 623.86 461.39 C 614.63 461.54 605.26 462.06 596.25 459.62 C 592.59 459.11 590.13 456.21 587.29 454.17 C 584.91 452.46 582.33 450.93 580.59 448.52 C 577.26 444.05 573.84 439.46 572.06 434.11 C 570.91 430.74 571.39 427.14 571.64 423.67 C 572.42 424.73 573.21 425.80 574.01 426.88 C 581.63 426.65 589.26 426.80 596.88 426.74 C 596.76 425.00 596.64 423.27 596.51 421.54 C 593.72 418.94 591.20 416.05 588.97 412.96 C 585.06 407.63 580.13 403.18 575.46 398.54 C 570.73 393.93 566.48 388.63 560.58 385.42 C 555.01 382.31 549.17 379.70 543.66 376.47 C 536.94 373.25 529.52 371.46 522.07 371.30 C 513.34 371.14 504.47 370.92 495.94 373.07 C 488.09 374.64 480.73 377.83 473.15 380.25 C 470.05 381.28 467.06 382.64 464.28 384.34 C 461.34 386.46 457.97 387.84 454.33 388.04 C 456.87 382.67 457.37 376.59 460.21 371.35 C 463.15 365.60 465.92 359.75 469.38 354.29 C 472.02 350.06 475.93 346.90 479.40 343.40 C 481.94 340.86 484.68 338.52 487.50 336.29 C 487.49 335.89 487.48 335.07 487.48 334.67 C 483.61 334.50 479.74 334.36 475.88 334.18 C 475.50 334.98 475.13 335.79 474.77 336.60 C 470.60 336.55 466.38 336.32 462.29 337.26 C 459.23 337.94 456.16 338.60 453.06 339.10 C 452.35 339.56 451.64 340.02 450.93 340.49 C 445.87 340.61 441.00 342.04 436.08 343.00 C 435.04 343.34 434.00 343.67 432.98 344.01 C 426.87 344.64 421.45 347.81 415.42 348.77 C 414.96 349.45 414.49 350.13 414.04 350.82 C 412.61 350.69 411.19 350.56 409.77 350.43 C 409.06 351.16 408.35 351.90 407.65 352.64 C 406.41 352.61 405.18 352.57 403.95 352.55 C 405.75 349.21 407.66 345.93 409.65 342.71 C 412.93 337.53 414.82 331.60 418.35 326.57 C 422.21 320.51 427.09 315.13 432.98 310.99 C 434.27 308.99 435.44 306.77 437.49 305.43 C 441.24 302.92 445.46 301.22 449.52 299.28 C 449.60 298.86 449.75 298.02 449.83 297.61 C 447.00 297.45 444.18 297.20 441.39 296.70 C 435.31 295.56 429.03 295.57 423.09 293.70 C 414.18 291.78 405.92 287.85 397.51 284.49 C 394.12 283.19 391.24 280.97 388.49 278.66 C 385.15 275.85 381.16 273.95 377.83 271.13 C 374.94 268.70 372.26 266.06 369.52 263.47 C 367.94 261.90 366.12 260.33 365.53 258.09 C 370.67 253.16 378.26 254.78 384.69 254.63 C 385.21 253.87 385.75 253.11 386.28 252.36 C 390.87 252.30 395.45 252.56 400.04 252.38 C 404.40 252.19 408.60 250.77 412.96 250.60 C 416.33 250.44 419.70 250.85 423.08 250.65 C 426.44 250.43 429.61 249.14 432.95 248.75 C 436.86 248.30 440.81 248.98 444.71 248.42 C 446.84 248.16 447.96 246.06 449.41 244.73 C 447.89 244.54 446.37 244.36 444.86 244.18 C 442.02 241.90 438.73 240.32 435.25 239.29 C 436.13 239.05 437.01 238.80 437.89 238.57 C 437.19 238.44 435.78 238.20 435.08 238.08 C 433.91 236.85 432.79 235.56 431.47 234.51 C 429.69 233.15 427.45 232.58 425.72 231.18 C 424.21 229.66 423.13 227.79 421.80 226.13 C 419.66 223.34 416.88 221.08 414.96 218.11 C 413.04 215.17 411.81 211.85 410.53 208.61 C 408.84 204.22 407.07 199.76 406.79 195.02 C 406.43 188.66 406.72 182.29 407.02 175.94 C 411.48 178.32 416.22 180.48 419.81 184.14 C 420.44 184.78 421.07 185.42 421.70 186.07 C 435.73 190.28 449.00 198.47 464.09 197.90 C 463.88 197.48 463.44 196.65 463.22 196.23 C 459.34 189.91 457.50 182.26 452.00 177.02 C 449.23 174.08 447.46 170.21 444.00 167.94 C 440.10 165.28 436.93 161.63 432.75 159.37 C 426.43 156.08 420.50 151.84 413.47 150.15 C 410.33 147.14 406.60 144.89 402.52 143.41 C 393.45 139.88 387.22 132.13 380.40 125.58 C 378.07 123.30 376.95 120.18 375.36 117.41 C 373.36 113.85 370.24 111.04 368.46 107.34 C 366.29 102.91 364.92 98.14 363.28 93.49 C 361.74 89.28 361.59 84.77 361.21 80.36 C 360.83 76.55 361.05 72.71 361.73 68.95 C 362.83 62.10 363.04 54.89 366.64 48.74 C 368.97 46.28 370.89 43.47 372.56 40.53 M 536.22 183.51 C 531.38 184.91 525.64 184.99 522.06 189.05 C 518.32 190.19 514.92 192.19 512.07 194.85 C 510.20 196.20 508.33 197.54 506.50 198.93 C 511.32 199.41 516.17 199.58 521.02 199.50 C 526.75 199.49 532.25 197.45 537.99 197.57 C 542.98 197.65 548.02 197.30 552.98 197.99 C 553.50 204.27 553.37 210.57 553.31 216.87 C 553.74 216.82 554.60 216.72 555.03 216.67 C 555.64 220.13 558.12 222.97 560.88 224.98 C 563.80 229.21 568.88 231.56 573.94 231.75 C 577.71 231.92 581.47 231.61 585.23 231.39 C 580.23 230.93 574.94 231.90 570.21 229.86 C 577.57 231.73 585.34 230.15 592.20 227.15 C 594.90 223.81 598.93 221.18 600.37 217.05 C 598.87 214.50 596.63 212.51 594.54 210.46 C 590.96 207.04 587.49 203.51 584.05 199.95 C 579.60 195.25 574.06 191.82 568.75 188.20 C 568.29 187.40 567.83 186.60 567.39 185.80 C 563.45 183.90 559.57 181.37 555.06 181.26 C 548.69 180.74 542.33 181.77 536.22 183.51 M 716.79 249.62 C 716.06 252.23 716.36 254.98 716.34 257.65 C 720.79 261.51 724.92 265.74 728.67 270.29 C 729.67 270.58 730.69 270.88 731.71 271.18 C 731.97 271.66 732.48 272.62 732.74 273.10 C 738.04 275.49 740.67 280.81 743.91 285.28 C 743.75 287.68 746.22 286.31 747.67 286.44 C 747.15 281.68 746.84 276.91 746.52 272.15 C 746.04 272.19 745.09 272.27 744.61 272.32 C 744.29 270.44 743.75 268.61 743.18 266.81 L 742.92 266.18 C 742.71 263.10 742.75 259.76 740.80 257.17 C 738.65 254.04 736.94 250.63 735.98 246.95 C 733.08 245.75 730.20 244.53 727.40 243.14 L 726.65 242.58 C 722.45 243.18 718.84 245.97 716.79 249.62 M 740.13 325.14 L 739.79 325.97 L 740.14 326.80 L 740.97 327.15 L 741.80 326.80 L 742.14 325.97 L 741.79 325.14 L 740.96 324.79 L 740.13 325.14 M 466.10 374.27 L 465.69 374.99 L 466.10 375.70 L 466.92 375.70 L 467.34 374.99 L 466.92 374.27 L 466.10 374.27 Z" />
<path fill="#010101" opacity="1.00" d=" M 658.05 55.66 C 661.57 55.74 665.10 55.79 668.62 56.05 C 676.90 56.65 684.74 59.56 692.84 61.18 C 699.18 63.16 705.85 63.79 712.21 65.75 C 716.31 67.01 720.56 67.62 724.70 68.72 C 724.98 68.86 725.53 69.12 725.81 69.26 C 726.12 69.40 726.74 69.69 727.05 69.83 C 736.52 73.47 746.51 75.58 756.16 78.70 C 767.17 82.15 777.95 86.30 788.96 89.75 C 794.45 91.53 799.66 94.17 805.34 95.40 C 807.92 95.89 810.47 96.70 812.57 98.35 C 811.27 104.73 814.70 110.66 814.45 116.98 C 814.35 126.32 813.90 135.70 815.29 144.98 C 815.72 156.12 815.32 167.29 815.42 178.45 C 816.46 179.04 817.51 179.64 818.57 180.24 C 817.76 181.98 816.94 183.72 816.12 185.46 C 816.46 185.73 817.14 186.27 817.48 186.55 C 819.97 188.59 822.86 190.14 826.01 190.91 C 834.04 193.01 842.14 194.88 850.19 196.95 C 856.25 198.68 862.59 199.66 868.23 202.60 C 871.82 204.44 875.76 205.41 879.70 206.17 C 880.74 206.63 881.78 207.12 882.82 207.61 C 881.78 214.38 880.11 221.11 880.35 228.01 C 880.51 234.07 878.86 239.95 878.31 245.95 C 877.63 252.25 877.72 258.62 876.55 264.86 C 875.70 269.79 874.05 274.57 873.56 279.56 C 873.16 283.44 873.26 287.35 873.15 291.25 C 872.76 291.65 871.98 292.46 871.59 292.87 C 871.52 295.66 871.47 298.46 871.40 301.25 C 870.96 298.11 870.65 294.96 870.49 291.80 C 870.40 297.79 869.65 303.75 868.74 309.67 L 868.43 310.31 C 866.75 313.43 865.98 316.89 865.39 320.35 C 864.55 325.19 862.69 329.77 861.78 334.59 C 861.39 336.66 861.22 338.76 860.97 340.86 C 859.93 343.47 859.31 346.22 859.02 349.01 C 858.71 349.40 858.08 350.17 857.77 350.55 C 856.02 358.99 852.65 367.01 851.26 375.53 C 850.84 375.76 850.01 376.24 849.59 376.48 C 849.47 377.17 849.23 378.55 849.11 379.25 C 832.40 379.56 815.68 379.54 798.97 379.26 C 802.36 371.21 805.36 363.02 807.84 354.65 C 808.10 353.27 808.37 351.90 808.66 350.53 C 809.01 350.15 809.72 349.40 810.07 349.02 C 810.50 345.41 811.19 341.81 812.57 338.43 C 814.50 333.74 815.71 328.81 817.13 323.95 L 817.35 323.32 C 817.47 322.98 817.70 322.32 817.81 321.99 C 818.78 319.18 819.62 316.33 820.33 313.45 C 824.81 295.52 828.84 277.41 830.93 259.02 C 831.85 252.99 833.02 246.95 832.65 240.81 C 824.74 239.31 817.05 236.88 809.27 234.87 C 802.29 233.04 795.16 231.81 788.22 229.83 C 786.98 223.73 785.31 217.71 783.38 211.80 C 782.44 208.92 781.09 206.16 779.14 203.83 C 776.96 201.55 774.50 199.54 772.28 197.31 C 772.39 196.79 772.62 195.77 772.73 195.26 C 773.77 190.56 774.22 185.72 773.85 180.91 C 773.51 174.90 771.67 169.07 771.56 163.04 C 771.40 155.67 771.97 148.30 771.70 140.93 C 771.59 137.45 770.49 134.11 769.34 130.86 C 765.67 129.88 762.02 128.81 758.34 127.87 C 754.43 126.90 750.47 126.12 746.54 125.25 C 746.02 124.60 745.51 123.95 745.01 123.30 C 743.80 123.13 742.60 122.95 741.41 122.77 C 741.07 122.60 740.40 122.27 740.06 122.10 C 733.89 118.90 727.09 117.21 720.36 115.64 C 715.09 114.90 709.94 113.57 704.80 112.21 C 702.12 111.60 699.45 110.93 696.80 110.21 C 686.55 108.10 676.61 104.36 666.15 103.37 C 665.70 102.71 665.26 102.04 664.83 101.38 C 661.73 101.38 658.64 101.42 655.55 101.51 C 653.35 97.40 653.19 92.67 654.08 88.17 L 654.43 87.50 C 656.10 84.65 656.92 81.39 656.74 78.09 C 656.50 70.59 657.31 63.12 658.05 55.66 Z" />
<path fill="#010101" opacity="1.00" d=" M 325.07 66.00 C 325.71 65.48 326.35 64.96 327.00 64.44 C 329.54 64.23 332.08 64.02 334.63 63.81 C 335.29 68.20 335.33 72.64 335.33 77.06 C 335.33 83.11 336.83 89.02 337.42 95.02 C 337.85 99.50 338.59 103.95 339.77 108.30 C 334.31 111.54 327.97 112.01 321.85 112.90 C 321.56 113.15 320.98 113.66 320.69 113.91 C 320.41 114.17 319.84 114.68 319.56 114.94 C 317.91 115.17 316.25 115.37 314.62 115.68 C 305.20 117.75 296.03 120.86 286.92 123.98 C 284.44 124.63 281.86 124.48 279.34 124.54 C 279.26 125.10 279.09 126.22 279.01 126.78 C 277.55 127.12 276.08 127.46 274.62 127.81 C 270.84 128.79 266.90 129.56 263.47 131.52 C 261.08 132.68 261.38 135.69 261.15 137.91 C 260.98 145.95 261.41 154.00 261.31 162.04 C 261.21 168.74 259.11 175.25 259.25 181.97 C 259.42 196.69 259.41 211.41 259.25 226.13 C 257.39 226.24 255.54 226.36 253.69 226.47 C 255.78 226.70 257.87 226.94 259.97 227.18 C 254.70 228.46 249.28 228.82 243.98 229.92 C 234.40 232.21 224.81 234.54 215.40 237.52 C 210.54 239.05 205.53 240.02 200.49 240.81 C 200.22 246.95 199.92 253.15 201.07 259.22 C 202.44 266.78 202.61 274.51 204.18 282.04 C 205.17 287.07 206.00 292.13 207.11 297.14 C 208.36 302.77 208.99 308.60 211.27 313.95 C 211.40 314.27 211.67 314.89 211.80 315.20 C 211.93 315.48 212.18 316.05 212.31 316.33 C 213.46 321.03 214.10 325.83 214.69 330.63 C 215.11 330.80 215.94 331.13 216.36 331.29 C 217.54 335.46 218.26 339.74 218.51 344.07 C 219.09 344.49 219.66 344.90 220.24 345.33 C 224.07 358.06 228.34 370.75 234.44 382.61 C 236.23 386.19 237.62 389.97 239.36 393.58 C 241.56 398.17 245.11 401.95 247.35 406.52 C 249.40 410.68 251.72 414.72 254.40 418.51 C 256.69 421.91 259.40 425.12 260.77 429.04 C 261.45 430.91 262.07 432.79 262.71 434.68 C 264.12 433.39 265.84 432.29 266.74 430.55 C 266.89 428.54 265.90 426.67 265.26 424.83 C 264.36 422.67 263.50 420.43 263.58 418.05 C 263.69 404.69 263.73 391.33 263.58 377.97 C 263.54 375.24 264.16 372.58 264.81 369.95 C 265.92 365.63 265.44 361.08 266.64 356.77 C 267.67 353.22 267.86 349.51 267.72 345.84 C 268.15 345.52 269.01 344.90 269.44 344.58 C 269.65 342.50 269.85 340.42 270.08 338.34 C 272.87 330.84 274.22 322.88 277.66 315.61 C 278.14 315.35 279.09 314.83 279.57 314.57 C 279.58 312.73 279.60 310.90 279.61 309.07 C 279.18 309.26 278.31 309.65 277.87 309.84 C 276.22 311.88 274.08 313.44 271.51 314.06 C 267.52 318.54 263.22 322.73 259.08 327.06 C 255.04 332.18 251.14 337.41 246.87 342.34 C 246.67 338.15 246.50 333.95 246.32 329.76 C 245.94 333.90 245.65 338.05 245.55 342.21 C 245.44 338.05 245.35 333.90 245.44 329.75 C 246.02 329.51 247.18 329.05 247.77 328.82 L 248.46 328.50 C 248.58 321.68 249.23 314.86 251.11 308.28 C 253.61 296.41 258.23 285.17 262.97 274.06 C 265.47 268.18 269.68 263.24 272.25 257.39 C 274.48 252.48 278.33 248.61 281.05 244.00 C 282.63 241.33 284.39 238.77 286.49 236.48 C 290.50 232.12 293.43 226.85 297.92 222.91 C 302.99 218.35 307.12 212.72 312.96 209.05 C 317.60 206.07 321.32 201.90 326.02 199.01 C 328.68 197.35 331.65 196.31 334.58 195.25 C 334.62 194.12 334.67 192.99 334.71 191.87 C 324.04 190.80 313.30 191.58 302.60 191.26 C 302.52 191.61 302.36 192.31 302.28 192.66 C 302.24 192.85 302.15 193.23 302.11 193.42 C 299.70 193.85 297.29 194.31 294.90 194.82 C 294.16 194.97 292.68 195.27 291.93 195.42 C 292.68 193.63 293.41 191.84 294.25 190.09 C 298.04 184.33 302.97 179.40 306.66 173.56 C 306.86 173.86 307.24 174.46 307.43 174.76 C 308.14 173.50 308.86 172.25 309.59 171.01 C 313.80 168.56 317.04 164.86 320.97 162.04 C 325.32 158.86 329.74 155.71 334.70 153.56 C 338.95 151.72 343.03 149.51 346.84 146.88 C 351.94 145.85 356.74 143.61 361.88 142.82 C 366.74 145.44 369.87 150.20 373.81 153.93 C 376.08 155.09 378.24 156.45 380.28 157.98 C 381.47 158.11 382.66 158.24 383.86 158.36 C 383.87 161.71 383.38 165.07 381.88 168.11 C 381.75 172.27 381.60 176.48 380.44 180.51 C 379.28 184.53 379.47 188.73 379.73 192.85 C 379.43 192.67 378.84 192.32 378.54 192.14 C 378.61 188.03 378.63 183.92 378.51 179.82 C 378.37 184.39 378.33 188.96 378.37 193.53 C 379.34 193.90 380.31 194.28 381.30 194.66 C 381.30 197.99 381.34 201.32 381.44 204.65 C 382.12 205.12 382.81 205.58 383.51 206.05 C 384.08 209.59 384.81 213.10 385.63 216.60 C 386.01 216.86 386.77 217.40 387.15 217.66 C 388.22 221.59 390.03 225.28 392.68 228.40 C 388.67 228.76 384.69 229.38 380.69 229.74 C 373.49 230.27 366.25 230.71 359.22 232.50 C 350.09 234.73 340.18 235.15 332.13 240.50 C 333.84 245.70 334.47 251.26 336.88 256.23 C 338.94 259.60 340.96 262.99 342.61 266.59 C 344.84 271.34 348.55 275.11 351.85 279.11 C 354.14 281.83 355.94 285.04 358.85 287.18 C 364.03 290.96 368.77 295.31 374.06 298.96 C 381.02 304.21 389.73 306.37 396.69 311.63 C 394.90 315.03 392.84 318.31 390.37 321.25 C 385.45 326.82 383.31 334.10 379.44 340.34 C 375.55 346.71 372.76 353.68 370.96 360.92 C 370.50 361.64 370.06 362.37 369.61 363.10 C 368.65 368.01 367.59 372.89 366.83 377.84 C 365.94 380.44 365.17 383.14 365.30 385.93 C 365.47 394.85 365.39 403.77 365.40 412.69 C 365.88 412.84 366.83 413.16 367.31 413.31 C 367.90 419.36 370.06 425.07 372.09 430.76 C 373.89 435.73 377.11 440.01 379.27 444.82 C 380.55 447.67 382.29 450.29 384.51 452.49 C 388.21 456.19 390.70 460.89 394.45 464.55 C 401.22 471.36 408.40 477.77 414.80 484.95 C 419.87 487.43 423.72 491.66 428.37 494.77 C 433.42 498.72 438.92 502.04 443.94 506.04 C 450.20 510.85 457.65 513.68 464.65 517.21 C 472.32 520.41 479.91 523.83 487.59 527.02 C 494.08 529.86 499.41 534.94 506.34 536.88 C 507.06 537.77 507.78 538.66 508.52 539.56 C 509.69 540.01 510.88 540.45 512.07 540.91 C 514.92 543.69 518.49 545.48 522.13 546.99 C 525.28 548.23 527.68 550.65 530.02 553.00 C 532.23 555.36 535.37 556.37 538.26 557.63 C 540.40 559.68 542.90 561.30 545.65 562.42 C 549.49 563.98 552.39 567.02 555.71 569.41 C 557.95 571.03 559.95 572.94 561.83 574.96 C 564.96 576.27 567.65 578.34 569.86 580.91 C 573.17 582.48 576.17 584.64 578.55 587.46 C 582.11 591.64 587.41 593.80 590.94 598.00 C 593.42 600.88 596.12 603.55 599.02 606.01 C 602.35 609.01 605.82 612.54 606.52 617.16 C 607.01 621.96 606.60 626.79 606.53 631.61 C 602.62 635.33 598.80 639.13 595.03 642.98 C 592.69 645.33 590.37 647.69 588.03 650.04 C 585.51 652.53 582.96 654.98 580.52 657.54 C 576.95 661.37 572.30 663.91 568.49 667.47 C 564.79 670.88 560.45 673.46 556.51 676.57 C 547.75 683.25 538.99 689.93 529.75 695.94 C 529.09 696.06 527.78 696.29 527.12 696.40 C 528.03 696.75 528.95 697.11 529.88 697.48 C 529.21 697.62 527.87 697.92 527.19 698.07 C 524.17 700.39 521.10 702.65 517.94 704.78 C 513.34 702.25 508.92 699.42 504.79 696.19 C 497.02 690.56 488.55 685.96 481.00 680.01 C 474.43 674.77 466.89 670.73 461.09 664.57 C 460.34 664.58 458.83 664.60 458.08 664.62 C 458.92 664.38 459.76 664.15 460.61 663.93 C 458.42 662.67 456.21 661.38 454.43 659.56 C 449.47 654.58 444.95 649.06 439.21 644.93 C 435.09 641.97 431.33 638.55 427.18 635.66 C 420.21 630.85 413.09 626.27 405.71 622.14 C 401.34 619.78 397.83 616.19 393.62 613.59 C 388.49 610.41 383.47 606.88 377.61 605.18 C 376.89 604.04 376.18 602.90 375.48 601.77 C 372.05 600.84 368.70 599.47 366.07 597.01 C 361.93 593.31 356.83 590.93 352.58 587.37 C 349.09 584.43 344.82 582.60 341.44 579.52 C 337.94 576.22 333.30 574.49 329.85 571.14 C 326.20 567.70 321.75 565.27 318.08 561.85 C 316.25 560.09 314.08 558.73 311.64 558.00 C 308.47 554.92 305.43 551.68 301.83 549.09 C 295.74 544.61 290.95 538.69 285.54 533.47 C 283.91 531.76 281.65 530.98 279.49 530.24 C 279.32 529.16 279.16 528.09 279.00 527.03 C 277.81 526.84 276.63 526.67 275.46 526.50 C 275.19 526.04 274.67 525.12 274.41 524.66 C 271.56 522.01 269.45 518.75 267.64 515.34 C 266.38 515.02 265.13 514.70 263.89 514.39 C 261.57 509.01 257.14 505.14 252.98 501.22 C 251.72 498.55 250.18 496.01 248.02 493.98 C 243.39 489.46 240.15 483.79 236.05 478.83 C 233.73 475.86 231.08 473.19 228.75 470.24 C 226.11 466.89 225.36 462.50 222.83 459.09 C 220.56 456.06 217.84 453.35 216.15 449.93 C 214.33 446.13 212.39 442.38 209.97 438.93 C 205.93 433.39 203.03 427.16 200.17 420.98 C 196.09 410.50 191.67 400.14 186.74 390.03 C 185.88 388.36 184.93 386.74 183.97 385.13 C 180.61 375.21 177.15 365.32 174.36 355.22 C 173.59 350.67 172.70 346.14 171.22 341.76 C 169.53 336.85 169.37 331.49 167.06 326.79 C 166.89 326.44 166.55 325.74 166.38 325.39 C 165.75 322.52 165.50 319.59 165.14 316.69 C 164.55 311.72 162.89 306.98 161.86 302.11 C 160.79 297.16 161.16 292.00 159.85 287.09 C 159.71 286.76 159.44 286.10 159.30 285.78 C 156.74 280.77 158.38 274.94 157.27 269.59 C 156.66 264.54 156.51 259.45 156.58 254.37 C 155.83 253.81 155.09 253.25 154.35 252.70 C 153.70 244.70 154.78 236.61 153.25 228.67 C 152.12 220.91 153.21 213.02 151.94 205.27 C 153.59 205.30 155.23 205.32 156.88 205.35 C 157.32 204.95 158.19 204.17 158.62 203.77 C 163.93 202.06 169.28 200.51 174.76 199.43 C 179.57 198.48 183.93 196.14 188.60 194.74 C 191.49 193.86 194.51 193.68 197.48 193.23 C 204.16 192.36 210.65 190.05 216.15 186.12 C 216.47 185.92 217.09 185.51 217.40 185.31 C 216.20 184.48 215.00 183.66 213.80 182.85 C 214.74 182.47 215.69 182.09 216.64 181.72 C 216.66 171.47 216.72 161.22 216.57 150.97 C 216.43 148.24 217.19 145.62 218.19 143.12 C 219.28 140.23 219.86 137.16 219.81 134.07 C 219.69 124.29 219.12 114.44 220.37 104.70 C 220.84 102.17 221.15 98.97 223.79 97.72 C 227.59 95.63 231.75 94.30 235.75 92.65 C 237.16 92.10 238.58 91.55 240.01 91.05 C 250.26 87.60 260.60 84.44 270.80 80.86 C 272.08 80.43 273.38 80.04 274.69 79.66 C 281.48 77.80 288.32 76.08 295.02 73.91 C 299.92 72.28 305.10 71.69 309.93 69.84 C 310.24 69.66 310.88 69.30 311.19 69.12 L 311.80 68.76 C 313.48 68.49 315.17 68.23 316.87 67.96 C 319.50 66.95 322.26 66.32 325.07 66.00 Z" />
<path fill="#010101" opacity="1.00" d=" M 764.06 463.70 C 764.72 463.61 765.39 463.54 766.06 463.47 C 766.62 464.37 767.23 465.26 767.88 466.14 C 771.13 468.66 775.14 469.80 778.94 471.23 C 782.91 472.98 786.31 475.76 790.20 477.70 C 796.25 480.75 802.38 483.67 808.72 486.10 C 805.33 493.12 800.21 499.16 797.28 506.41 C 795.89 509.79 793.81 512.82 791.53 515.66 C 788.04 519.74 785.75 524.62 783.66 529.52 C 781.69 533.81 779.06 537.74 776.70 541.82 C 773.87 546.77 769.85 550.87 766.63 555.55 C 763.77 559.50 761.27 563.69 758.92 567.96 C 756.49 572.36 752.10 575.29 749.96 579.88 C 746.75 586.36 741.06 591.07 737.22 597.13 C 734.38 601.56 730.58 605.26 727.61 609.59 C 726.01 611.96 724.01 614.00 721.99 616.00 C 719.75 618.18 718.18 620.89 716.35 623.39 C 713.83 626.82 710.15 629.21 707.83 632.81 C 705.75 635.99 703.51 639.11 700.62 641.62 C 693.43 648.10 687.10 655.45 680.10 662.12 C 674.68 667.40 669.03 672.51 664.38 678.50 C 664.05 678.92 663.39 679.76 663.06 680.18 C 660.42 682.14 657.80 684.14 655.53 686.53 C 651.50 690.83 646.80 694.43 642.98 698.93 C 637.90 701.70 634.29 706.35 629.46 709.46 C 625.48 712.15 622.46 716.01 618.33 718.49 C 614.94 720.58 612.66 723.98 609.39 726.22 C 601.85 731.31 594.25 736.37 587.31 742.28 C 578.39 748.32 569.34 754.22 560.78 760.79 C 557.60 763.11 553.94 764.63 550.72 766.88 C 540.40 774.81 528.73 780.71 517.33 786.90 C 511.82 784.52 507.51 780.03 501.78 778.10 C 498.28 776.88 495.16 774.88 492.35 772.51 C 486.29 767.85 479.61 764.09 473.38 759.67 C 465.58 754.78 458.18 749.26 450.23 744.60 C 442.97 739.28 435.70 733.96 428.64 728.37 C 426.37 726.57 423.87 725.10 421.45 723.53 C 417.25 720.86 414.25 716.73 410.07 714.04 C 407.12 712.10 404.57 709.64 402.17 707.08 C 399.00 705.71 396.12 703.74 393.97 701.04 C 391.80 698.32 388.94 696.31 385.76 694.97 C 378.50 687.03 370.39 679.93 363.08 672.04 C 359.72 670.59 356.75 668.40 354.39 665.61 C 349.26 659.78 342.86 655.09 338.49 648.60 C 334.31 642.52 328.76 637.59 323.45 632.53 C 319.79 629.11 317.70 624.39 314.01 621.01 C 311.58 618.73 309.29 616.31 307.38 613.58 C 304.64 609.68 301.16 606.38 298.51 602.42 C 296.73 599.70 294.43 597.39 292.03 595.23 C 289.34 589.20 283.63 585.36 280.53 579.60 C 277.18 573.96 272.98 568.91 269.58 563.31 C 267.70 560.30 265.43 557.57 263.23 554.80 C 259.63 550.32 256.82 545.29 253.35 540.73 C 253.88 540.64 254.95 540.46 255.48 540.37 C 259.19 544.70 262.86 549.09 266.93 553.08 C 270.34 556.47 275.14 557.96 278.43 561.50 C 281.20 564.51 284.69 566.68 287.86 569.22 C 293.32 574.88 299.34 580.13 306.14 584.12 C 308.42 586.56 311.03 588.69 314.05 590.15 C 318.78 593.10 323.16 596.65 326.73 600.96 C 328.53 601.88 330.36 602.80 332.01 604.01 C 335.07 606.36 338.24 608.59 341.74 610.25 C 354.64 616.99 365.52 626.98 378.39 633.78 C 383.88 636.81 388.52 641.21 394.31 643.73 C 397.86 645.25 401.31 647.09 403.91 650.01 C 406.12 652.37 409.04 653.82 412.05 654.88 C 417.96 657.12 422.26 661.99 426.35 666.60 C 428.74 669.36 431.98 671.11 434.94 673.18 C 439.79 676.54 442.58 682.05 447.38 685.48 C 450.70 687.80 453.61 690.61 456.57 693.36 C 461.06 697.08 465.93 700.35 471.08 703.08 C 475.36 705.32 478.75 708.89 483.02 711.16 C 487.01 713.23 489.59 717.16 493.57 719.27 C 500.23 722.96 506.65 727.09 513.33 730.76 C 514.98 731.54 516.80 732.73 518.69 731.95 C 523.77 730.40 528.25 727.42 532.76 724.69 C 538.48 721.22 543.72 717.05 549.18 713.20 C 553.25 710.62 557.35 708.05 561.11 705.01 C 568.05 699.56 575.15 694.33 582.26 689.11 C 584.69 687.29 586.81 685.11 589.05 683.06 C 591.65 680.62 594.87 678.94 597.34 676.35 C 599.29 674.32 600.96 672.00 603.12 670.17 C 605.47 668.14 608.13 666.49 610.46 664.44 C 612.97 662.28 615.08 659.73 617.46 657.45 C 620.70 654.30 624.77 652.17 628.02 649.01 C 636.70 640.37 645.13 631.46 654.14 623.16 C 657.17 620.09 658.88 616.00 661.93 612.94 C 666.39 608.36 671.48 604.33 675.05 598.95 C 677.65 595.01 682.03 592.73 684.67 588.83 C 686.59 586.07 688.67 583.43 690.87 580.89 C 694.23 577.02 696.05 572.11 699.33 568.19 C 702.18 564.71 705.35 561.48 707.76 557.66 C 709.90 554.26 712.53 551.23 715.22 548.26 C 719.18 540.21 725.58 533.73 729.87 525.89 C 732.41 521.21 735.46 516.85 738.23 512.32 C 742.22 505.45 745.85 498.38 749.40 491.27 C 751.75 486.52 755.22 482.43 757.53 477.65 C 759.78 473.03 761.80 468.31 764.06 463.70 Z" />
<path fill="#010101" opacity="1.00" d=" M 252.24 536.43 C 253.55 534.97 255.87 537.22 254.41 538.56 C 253.10 540.01 250.76 537.75 252.24 536.43 Z" />
<path fill="#010101" opacity="1.00" d=" M 177.81 842.16 C 198.56 842.20 219.31 842.20 240.07 842.13 C 245.58 842.06 250.64 844.52 255.68 846.43 C 260.89 848.37 264.46 852.94 267.59 857.31 C 270.20 860.96 269.56 865.65 270.01 869.87 C 272.23 874.27 271.71 879.27 271.75 884.04 C 271.85 889.12 270.12 893.97 269.61 898.98 C 269.31 902.33 268.23 905.60 266.18 908.29 C 260.32 916.02 250.71 920.59 241.02 920.43 C 229.46 920.33 217.90 920.45 206.34 920.31 C 206.44 931.98 206.53 943.66 206.28 955.33 C 196.77 955.48 187.26 955.52 177.76 955.30 C 177.45 926.54 177.71 897.77 177.62 869.00 C 177.68 860.05 177.45 851.10 177.81 842.16 M 206.94 867.29 C 205.74 876.66 206.48 886.13 206.45 895.55 C 215.32 895.78 224.19 895.52 233.06 895.78 C 235.59 895.87 238.11 895.43 240.48 894.54 C 240.60 893.22 240.73 891.91 240.86 890.61 C 241.31 890.68 242.23 890.81 242.69 890.88 C 242.66 884.63 242.64 878.39 242.69 872.15 C 241.78 871.45 240.88 870.78 239.97 870.11 C 239.38 869.09 238.70 868.16 238.03 867.22 C 227.67 867.53 217.30 867.40 206.94 867.29 Z" />
<path fill="#010101" opacity="1.00" d=" M 287.25 842.19 C 309.05 842.29 330.87 841.94 352.67 842.36 C 352.96 842.52 353.56 842.84 353.86 843.00 C 354.17 843.16 354.79 843.48 355.10 843.63 C 360.31 845.97 366.00 847.18 370.98 850.08 C 373.62 851.57 374.65 854.62 376.10 857.12 C 378.15 858.97 379.82 861.22 379.99 864.09 C 380.92 864.69 381.86 865.29 382.80 865.92 C 382.24 877.60 382.68 889.31 382.55 901.00 C 382.66 910.69 382.28 920.40 382.79 930.09 C 381.86 930.69 380.92 931.29 380.00 931.92 C 378.84 937.56 375.48 942.46 371.51 946.51 C 366.61 951.03 359.91 952.60 353.96 955.26 C 331.84 955.73 309.70 955.18 287.58 955.55 C 287.11 947.03 287.40 938.51 287.33 930.00 C 287.28 900.73 287.44 871.46 287.25 842.19 M 380.93 880.00 C 380.96 891.00 380.91 902.00 380.95 913.00 C 381.00 918.70 380.37 924.47 381.67 930.09 C 382.94 923.79 382.31 917.36 382.40 911.00 C 382.45 899.00 382.34 887.00 382.47 875.01 C 382.51 871.96 382.21 868.92 381.69 865.93 C 380.65 870.55 380.81 875.30 380.93 880.00 M 316.46 867.35 C 313.22 875.49 314.40 884.37 314.49 892.90 C 314.89 891.54 315.28 890.19 315.50 888.81 C 315.52 890.33 315.69 891.86 315.88 893.40 C 315.07 896.19 314.88 899.11 315.15 902.01 C 315.67 907.96 315.34 913.94 314.76 919.87 C 314.82 921.00 314.80 922.14 314.88 923.28 C 315.22 924.20 315.53 925.14 315.88 926.08 C 315.82 926.51 315.70 927.37 315.64 927.80 C 316.38 928.62 317.12 929.45 317.87 930.29 C 324.25 930.34 330.63 930.36 337.02 930.41 C 339.56 930.33 342.21 930.45 344.65 929.58 C 347.66 928.04 349.99 925.51 352.67 923.49 C 352.69 923.24 352.73 922.75 352.76 922.50 C 354.69 916.85 353.91 910.84 353.95 905.00 C 353.95 897.66 353.93 890.32 354.04 882.98 C 353.96 879.71 354.18 876.22 352.66 873.22 C 350.69 869.84 347.10 867.13 343.04 867.29 C 334.19 867.27 325.32 867.35 316.46 867.35 Z" />
<path fill="#010101" opacity="1.00" d=" M 399.35 842.02 C 408.95 842.34 418.56 842.14 428.16 842.15 C 428.59 864.76 428.22 887.39 428.34 910.01 C 428.34 916.57 428.43 923.15 428.17 929.72 L 428.13 930.64 C 444.22 930.81 460.31 930.41 476.40 930.86 C 475.42 939.18 475.16 947.56 475.44 955.93 C 470.96 955.69 466.48 955.60 462.00 955.64 C 440.99 955.74 419.98 955.56 398.97 955.73 C 399.95 949.20 399.75 942.58 399.65 936.00 C 399.66 914.33 399.65 892.67 399.65 871.00 C 399.60 861.34 399.89 851.67 399.35 842.02 Z" />
<path fill="#010101" opacity="1.00" d=" M 491.15 842.19 C 500.16 842.16 509.17 842.21 518.19 842.15 C 518.44 848.42 518.39 854.71 518.36 861.00 C 518.37 887.00 518.36 913.00 518.37 939.00 C 518.42 944.58 518.43 950.17 518.14 955.75 C 509.15 955.63 500.15 955.60 491.16 955.75 C 491.11 917.89 491.14 880.04 491.15 842.19 Z" />
<path fill="#010101" opacity="1.00" d=" M 538.17 842.19 C 547.06 842.19 555.96 842.13 564.86 842.23 C 568.46 848.46 572.50 854.43 577.06 860.00 C 581.39 866.11 584.83 872.82 588.82 879.17 C 593.48 887.21 599.42 894.54 603.00 903.18 C 604.19 903.40 605.38 903.63 606.59 903.88 C 606.87 883.30 606.36 862.72 606.85 842.15 C 616.11 842.22 625.38 842.13 634.65 842.24 C 634.42 872.16 634.62 902.08 634.55 932.00 C 634.47 940.01 634.81 948.02 634.28 956.03 C 633.99 927.69 634.24 899.34 634.16 871.00 C 634.04 861.54 634.64 852.06 633.55 842.64 C 632.77 851.74 633.15 860.88 633.09 870.00 C 633.06 898.37 633.14 926.73 633.06 955.10 C 624.41 955.26 615.77 955.15 607.12 955.22 C 603.22 946.82 596.92 939.84 592.34 931.84 C 590.10 926.38 586.91 921.39 582.89 917.08 C 580.65 914.30 578.62 911.37 576.61 908.44 C 573.35 903.75 571.14 898.44 568.03 893.66 C 566.70 903.05 567.67 912.55 567.38 922.00 C 567.11 928.44 568.24 935.02 566.58 941.34 C 565.24 945.85 565.20 950.58 566.00 955.19 C 556.63 955.47 547.25 955.29 537.87 955.38 C 538.28 948.93 538.18 942.46 538.17 936.00 C 538.17 904.73 538.16 873.46 538.17 842.19 Z" />
</g>
<g id="#0202029c">
<path fill="#020202" opacity="0.61" d=" M 657.80 54.68 C 661.47 53.99 665.23 54.26 668.95 54.31 C 668.86 54.74 668.70 55.61 668.62 56.05 C 665.10 55.79 661.57 55.74 658.05 55.66 C 657.31 63.12 656.50 70.59 656.74 78.09 C 656.92 81.39 656.10 84.65 654.43 87.50 C 655.57 81.70 655.27 75.79 655.31 69.92 C 655.98 64.82 657.40 59.84 657.80 54.68 Z" />
</g>
<g id="#0605057e">
<path fill="#060505" opacity="0.49" d=" M 359.25 78.72 C 358.87 71.91 361.76 65.50 361.86 58.71 C 362.17 62.12 362.36 65.56 361.73 68.95 C 361.05 72.71 360.83 76.55 361.21 80.36 C 360.55 79.81 359.90 79.27 359.25 78.72 Z" />
</g>
<g id="#02020296">
<path fill="#020202" opacity="0.59" d=" M 334.43 62.27 C 334.99 62.24 336.12 62.18 336.68 62.15 C 337.09 70.17 335.59 78.36 337.69 86.23 C 339.16 91.64 338.13 97.42 340.06 102.75 C 340.44 104.87 341.90 108.08 339.45 109.43 C 333.77 112.62 327.18 114.02 320.69 113.91 C 320.98 113.66 321.56 113.15 321.85 112.90 C 327.97 112.01 334.31 111.54 339.77 108.30 C 338.59 103.95 337.85 99.50 337.42 95.02 C 336.83 89.02 335.33 83.11 335.33 77.06 C 335.33 72.64 335.29 68.20 334.63 63.81 C 334.58 63.43 334.48 62.66 334.43 62.27 Z" />
</g>
<g id="#0202027b">
<path fill="#020202" opacity="0.48" d=" M 302.70 70.72 C 305.37 69.52 308.28 69.07 311.19 69.12 C 310.88 69.30 310.24 69.66 309.93 69.84 C 305.10 71.69 299.92 72.28 295.02 73.91 C 288.32 76.08 281.48 77.80 274.69 79.66 C 274.94 79.17 275.44 78.17 275.70 77.68 C 280.37 77.04 285.11 76.42 289.48 74.52 C 293.72 72.68 298.45 72.54 302.70 70.72 Z" />
<path fill="#020202" opacity="0.48" d=" M 419.81 184.14 C 426.48 186.25 432.94 188.95 439.40 191.61 C 444.65 193.86 450.37 194.58 455.75 196.48 C 458.19 197.42 460.83 197.26 463.22 196.23 C 463.44 196.65 463.88 197.48 464.09 197.90 C 449.00 198.47 435.73 190.28 421.70 186.07 C 421.07 185.42 420.44 184.78 419.81 184.14 Z" />
</g>
<g id="#03030383">
<path fill="#030303" opacity="0.51" d=" M 725.81 69.26 C 729.76 69.07 733.30 70.89 736.98 72.00 C 744.11 73.73 750.87 76.74 758.19 77.72 C 761.74 80.33 766.19 80.76 770.31 81.92 C 781.54 85.48 792.55 89.65 803.56 93.82 C 804.14 94.35 804.74 94.87 805.34 95.40 C 799.66 94.17 794.45 91.53 788.96 89.75 C 777.95 86.30 767.17 82.15 756.16 78.70 C 746.51 75.58 736.52 73.47 727.05 69.83 C 726.74 69.69 726.12 69.40 725.81 69.26 Z" />
<path fill="#030303" opacity="0.51" d=" M 450.23 744.60 C 458.18 749.26 465.58 754.78 473.38 759.67 C 479.61 764.09 486.29 767.85 492.35 772.51 C 489.00 770.96 485.67 769.36 482.60 767.32 C 473.77 761.49 465.04 755.53 456.14 749.81 C 453.90 748.40 451.98 746.56 450.23 744.60 Z" />
</g>
<g id="#0303037b">
<path fill="#030303" opacity="0.48" d=" M 254.65 84.71 C 259.80 82.58 265.17 80.86 270.80 80.86 C 260.60 84.44 250.26 87.60 240.01 91.05 C 244.04 87.33 249.65 86.47 254.65 84.71 Z" />
</g>
<g id="#01010195">
<path fill="#010101" opacity="0.58" d=" M 220.52 98.15 C 225.23 95.44 230.24 93.05 235.75 92.65 C 231.75 94.30 227.59 95.63 223.79 97.72 C 221.15 98.97 220.84 102.17 220.37 104.70 C 219.12 114.44 219.69 124.29 219.81 134.07 C 219.86 137.16 219.28 140.23 218.19 143.12 C 218.40 133.74 218.40 124.35 218.22 114.97 C 217.93 109.23 220.52 103.87 220.52 98.15 Z" />
</g>
<g id="#03030382">
<path fill="#030303" opacity="0.51" d=" M 286.92 123.98 C 296.03 120.86 305.20 117.75 314.62 115.68 C 314.43 116.15 314.05 117.11 313.86 117.58 C 307.45 118.09 301.50 120.62 295.34 122.22 C 290.58 123.76 285.94 125.73 280.93 126.34 C 280.70 126.04 280.25 125.44 280.02 125.15 C 282.33 124.87 284.67 124.66 286.92 123.98 Z" />
</g>
<g id="#02020293">
<path fill="#020202" opacity="0.58" d=" M 720.36 115.64 C 727.09 117.21 733.89 118.90 740.06 122.10 C 733.49 121.59 727.80 117.71 721.19 117.45 C 720.98 117.00 720.57 116.09 720.36 115.64 Z" />
<path fill="#020202" opacity="0.58" d=" M 783.66 529.52 C 785.75 524.62 788.04 519.74 791.53 515.66 C 789.86 520.77 787.05 525.38 783.66 529.52 Z" />
</g>
<g id="#02010187">
<path fill="#020101" opacity="0.53" d=" M 439.88 120.15 C 443.06 121.14 446.10 122.53 448.97 124.22 C 453.23 126.87 458.61 127.19 462.48 130.54 C 457.62 128.72 452.57 127.34 447.94 124.97 C 445.14 123.56 442.57 121.75 439.88 120.15 Z" />
</g>
<g id="#0202028b">
<path fill="#020202" opacity="0.55" d=" M 263.47 131.52 C 266.90 129.56 270.84 128.79 274.62 127.81 C 274.62 128.20 274.60 128.96 274.59 129.34 C 271.03 130.46 267.38 131.30 263.71 131.94 C 263.01 134.90 262.46 137.92 262.53 140.98 C 262.69 149.01 262.59 157.04 262.74 165.07 C 263.11 170.30 259.27 174.71 259.70 179.95 C 259.97 195.69 259.57 211.44 259.97 227.18 C 257.87 226.94 255.78 226.70 253.69 226.47 C 255.54 226.36 257.39 226.24 259.25 226.13 C 259.41 211.41 259.42 196.69 259.25 181.97 C 259.11 175.25 261.21 168.74 261.31 162.04 C 261.41 154.00 260.98 145.95 261.15 137.91 C 261.38 135.69 261.08 132.68 263.47 131.52 Z" />
</g>
<g id="#02020285">
<path fill="#020202" opacity="0.52" d=" M 758.34 127.87 C 762.02 128.81 765.67 129.88 769.34 130.86 C 770.49 134.11 771.59 137.45 771.70 140.93 C 771.97 148.30 771.40 155.67 771.56 163.04 C 771.67 169.07 773.51 174.90 773.85 180.91 C 774.22 185.72 773.77 190.56 772.73 195.26 C 772.34 190.84 772.36 186.40 772.37 181.97 C 772.38 176.63 771.15 171.37 771.17 166.03 C 771.16 157.66 771.37 149.29 771.27 140.93 C 771.34 137.62 769.59 134.73 767.99 131.98 C 764.78 131.14 761.59 130.21 758.41 129.29 C 758.40 128.94 758.36 128.23 758.34 127.87 Z" />
<path fill="#020202" opacity="0.52" d=" M 403.91 650.01 C 406.87 651.19 409.61 652.83 412.05 654.88 C 409.04 653.82 406.12 652.37 403.91 650.01 Z" />
</g>
<g id="#01010166">
<path fill="#010101" opacity="0.40" d=" M 816.25 140.56 C 816.80 143.67 817.20 146.82 817.18 149.99 C 817.06 159.06 816.94 168.13 817.28 177.19 C 816.89 177.43 816.11 177.92 815.72 178.17 C 815.60 172.78 815.58 167.39 815.62 162.00 C 815.71 154.85 815.17 147.66 816.25 140.56 Z" />
<path fill="#010101" opacity="0.40" d=" M 302.60 191.26 C 313.30 191.58 324.04 190.80 334.71 191.87 C 330.85 192.55 326.92 192.87 323.00 192.73 C 316.09 192.52 309.19 192.75 302.28 192.66 C 302.36 192.31 302.52 191.61 302.60 191.26 Z" />
</g>
<g id="#01010182">
<path fill="#010101" opacity="0.51" d=" M 536.22 183.51 C 542.33 181.77 548.69 180.74 555.06 181.26 C 559.57 181.37 563.45 183.90 567.39 185.80 C 567.83 186.60 568.29 187.40 568.75 188.20 C 561.46 183.12 552.15 181.13 543.46 183.13 C 536.25 184.81 529.12 186.81 522.06 189.05 C 525.64 184.99 531.38 184.91 536.22 183.51 Z" />
</g>
<g id="#03030389">
<path fill="#030303" opacity="0.54" d=" M 203.75 191.04 C 207.80 189.20 211.92 187.50 216.15 186.12 C 210.65 190.05 204.16 192.36 197.48 193.23 C 197.38 192.78 197.20 191.88 197.11 191.44 C 199.32 191.30 201.53 191.17 203.75 191.04 Z" />
</g>
<g id="#03030384">
<path fill="#030303" opacity="0.52" d=" M 817.48 186.55 C 821.57 187.98 825.76 189.09 829.93 190.29 C 834.03 191.45 838.01 193.05 842.19 193.96 C 844.93 194.71 847.83 195.26 850.19 196.95 C 842.14 194.88 834.04 193.01 826.01 190.91 C 822.86 190.14 819.97 188.59 817.48 186.55 Z" />
</g>
<g id="#02020275">
<path fill="#020202" opacity="0.46" d=" M 662.75 188.16 C 665.54 195.47 666.15 203.31 665.83 211.07 L 664.34 210.95 C 664.44 210.16 664.64 208.58 664.74 207.79 C 665.71 201.18 664.03 194.60 662.75 188.16 Z" />
</g>
<g id="#0202025c">
<path fill="#020202" opacity="0.36" d=" M 289.09 198.13 C 290.14 195.07 291.80 192.24 294.25 190.09 C 293.41 191.84 292.68 193.63 291.93 195.42 C 292.68 195.27 294.16 194.97 294.90 194.82 C 293.04 196.05 291.09 197.15 289.09 198.13 Z" />
</g>
<g id="#02020261">
<path fill="#020202" opacity="0.38" d=" M 552.98 197.99 C 553.40 198.07 554.25 198.25 554.67 198.33 C 554.82 204.44 554.32 210.58 555.03 216.67 C 554.60 216.72 553.74 216.82 553.31 216.87 C 553.37 210.57 553.50 204.27 552.98 197.99 Z" />
</g>
<g id="#0202027e">
<path fill="#020202" opacity="0.49" d=" M 779.14 203.83 C 781.09 206.16 782.44 208.92 783.38 211.80 C 785.31 217.71 786.98 223.73 788.22 229.83 C 795.16 231.81 802.29 233.04 809.27 234.87 C 817.05 236.88 824.74 239.31 832.65 240.81 C 833.02 246.95 831.85 252.99 830.93 259.02 C 828.84 277.41 824.81 295.52 820.33 313.45 C 819.62 316.33 818.78 319.18 817.81 321.99 C 817.70 322.32 817.47 322.98 817.35 323.32 C 818.28 318.38 819.13 313.42 819.55 308.42 C 820.37 307.62 821.20 306.83 822.05 306.04 C 822.74 296.80 824.15 287.53 826.89 278.66 C 827.34 274.58 826.66 270.03 829.38 266.59 C 829.37 262.37 828.96 258.07 830.13 253.95 C 831.28 249.99 831.63 245.86 831.39 241.75 C 827.48 240.94 823.56 240.13 819.75 238.93 C 809.04 235.26 797.64 234.29 786.79 231.15 C 785.42 221.75 782.61 212.65 779.14 203.83 Z" />
<path fill="#020202" opacity="0.49" d=" M 582.89 917.08 C 586.91 921.39 590.10 926.38 592.34 931.84 C 588.04 927.77 585.51 922.28 582.89 917.08 Z" />
</g>
<g id="#02020276">
<path fill="#020202" opacity="0.46" d=" M 151.30 228.86 C 151.54 221.00 150.80 213.09 151.94 205.27 C 153.21 213.02 152.12 220.91 153.25 228.67 C 152.76 228.72 151.78 228.81 151.30 228.86 Z" />
</g>
<g id="#02020273">
<path fill="#020202" opacity="0.45" d=" M 882.82 207.61 C 883.66 210.16 884.14 212.90 883.23 215.51 C 881.90 219.88 881.21 224.44 881.68 229.02 C 882.43 235.17 879.33 240.91 879.66 247.04 C 879.91 251.46 878.06 255.59 877.77 259.95 C 877.61 270.56 873.76 280.68 873.15 291.25 C 873.26 287.35 873.16 283.44 873.56 279.56 C 874.05 274.57 875.70 269.79 876.55 264.86 C 877.72 258.62 877.63 252.25 878.31 245.95 C 878.86 239.95 880.51 234.07 880.35 228.01 C 880.11 221.11 881.78 214.38 882.82 207.61 Z" />
</g>
<g id="#0202029b">
<path fill="#020202" opacity="0.61" d=" M 560.88 224.98 C 563.89 226.77 566.96 228.52 570.21 229.86 C 574.94 231.90 580.23 230.93 585.23 231.39 C 581.47 231.61 577.71 231.92 573.94 231.75 C 568.88 231.56 563.80 229.21 560.88 224.98 Z" />
</g>
<g id="#03030380">
<path fill="#030303" opacity="0.50" d=" M 674.81 226.01 C 680.80 225.94 686.85 227.05 692.19 229.86 C 693.30 230.41 693.98 231.49 694.78 232.41 C 688.86 229.44 682.39 228.12 675.92 227.00 C 675.65 226.75 675.09 226.25 674.81 226.01 Z" />
<path fill="#030303" opacity="0.50" d=" M 186.74 390.03 C 191.67 400.14 196.09 410.50 200.17 420.98 C 195.11 415.22 194.13 407.32 190.41 400.81 C 188.47 397.49 187.67 393.71 186.74 390.03 Z" />
</g>
<g id="#0202027a">
<path fill="#020202" opacity="0.48" d=" M 215.40 237.52 C 224.81 234.54 234.40 232.21 243.98 229.92 C 241.57 232.34 238.09 232.91 234.91 233.68 C 223.79 235.75 213.29 240.70 201.86 241.11 C 201.77 247.43 200.72 253.94 202.76 260.08 C 204.34 264.82 203.08 269.88 204.29 274.68 C 205.76 281.37 206.59 288.18 208.18 294.85 C 209.15 301.68 211.57 308.25 211.80 315.20 C 211.67 314.89 211.40 314.27 211.27 313.95 C 208.99 308.60 208.36 302.77 207.11 297.14 C 206.00 292.13 205.17 287.07 204.18 282.04 C 202.61 274.51 202.44 266.78 201.07 259.22 C 199.92 253.15 200.22 246.95 200.49 240.81 C 205.53 240.02 210.54 239.05 215.40 237.52 Z" />
</g>
<g id="#02020279">
<path fill="#020202" opacity="0.47" d=" M 359.22 232.50 C 366.25 230.71 373.49 230.27 380.69 229.74 C 380.73 230.25 380.81 231.25 380.86 231.76 C 376.35 231.62 371.75 231.14 367.33 232.30 C 364.04 233.15 360.68 233.66 357.29 233.82 C 353.62 235.52 349.61 236.09 345.61 236.37 C 341.13 236.70 337.12 238.88 333.33 241.13 C 334.68 246.12 336.28 251.06 336.88 256.23 C 334.47 251.26 333.84 245.70 332.13 240.50 C 340.18 235.15 350.09 234.73 359.22 232.50 Z" />
</g>
<g id="#03030387">
<path fill="#030303" opacity="0.53" d=" M 727.40 243.14 C 730.20 244.53 733.08 245.75 735.98 246.95 C 736.94 250.63 738.65 254.04 740.80 257.17 C 742.75 259.76 742.71 263.10 742.92 266.18 C 742.79 265.86 742.53 265.22 742.40 264.90 C 740.32 258.95 737.82 253.12 734.06 248.02 C 731.83 246.40 729.61 244.78 727.40 243.14 Z" />
</g>
<g id="#02020294">
<path fill="#020202" opacity="0.58" d=" M 778.78 247.87 C 780.33 246.47 782.36 245.60 784.45 246.35 C 786.21 249.37 787.39 252.70 789.17 255.72 C 791.69 265.64 790.44 275.91 790.80 286.01 C 790.98 291.14 790.39 296.26 789.27 301.27 C 788.80 301.54 787.86 302.06 787.39 302.32 C 788.81 297.33 790.33 292.28 790.42 287.05 C 790.50 282.02 790.43 276.99 790.42 271.96 C 790.37 263.06 787.64 254.26 783.09 246.63 C 781.64 247.02 780.20 247.42 778.78 247.87 Z" />
</g>
<g id="#0202025a">
<path fill="#020202" opacity="0.35" d=" M 761.49 266.44 C 760.76 260.78 760.86 254.99 762.55 249.50 C 762.64 253.98 762.71 258.46 762.79 262.94 C 763.35 263.17 764.47 263.62 765.03 263.85 C 763.86 264.74 762.67 265.58 761.49 266.44 Z" />
</g>
<g id="#01010184">
<path fill="#010101" opacity="0.52" d=" M 154.35 252.70 C 155.09 253.25 155.83 253.81 156.58 254.37 C 156.51 259.45 156.66 264.54 157.27 269.59 C 156.77 269.66 155.78 269.79 155.28 269.86 C 155.52 264.13 155.63 258.33 154.35 252.70 Z" />
</g>
<g id="#02020280">
<path fill="#020202" opacity="0.50" d=" M 589.89 270.00 C 593.72 268.73 597.80 268.77 601.71 269.67 C 601.55 275.02 601.64 280.38 601.98 285.72 C 606.41 283.74 611.03 281.97 614.91 278.99 C 617.36 277.13 618.96 274.45 620.58 271.89 C 623.16 272.77 625.74 273.68 628.22 274.83 C 625.70 274.48 623.22 273.96 620.80 273.23 C 619.23 275.71 617.96 278.63 615.33 280.20 C 612.18 282.09 609.03 284.00 605.82 285.79 C 604.12 286.78 602.10 286.23 600.25 286.22 C 600.35 281.05 600.31 275.89 600.18 270.72 C 594.10 270.06 588.14 271.68 582.39 273.45 C 576.08 274.85 569.70 275.97 563.31 276.90 C 556.75 278.95 549.90 280.68 542.99 280.52 C 542.51 281.12 542.03 281.72 541.56 282.32 C 537.81 282.50 534.13 283.27 530.51 284.21 C 527.32 285.05 524.03 284.53 520.80 284.32 C 525.57 283.14 530.49 282.69 535.29 281.62 C 545.79 279.30 556.41 277.49 566.90 275.09 C 574.54 273.27 582.37 272.31 589.89 270.00 Z" />
<path fill="#020202" opacity="0.50" d=" M 159.30 285.78 C 159.44 286.10 159.71 286.76 159.85 287.09 C 161.16 292.00 160.79 297.16 161.86 302.11 C 162.89 306.98 164.55 311.72 165.14 316.69 C 164.72 317.02 163.89 317.67 163.48 318.00 C 163.37 307.08 158.14 296.78 159.30 285.78 Z" />
<path fill="#020202" opacity="0.50" d=" M 690.83 427.42 C 691.11 427.26 691.66 426.95 691.94 426.79 L 692.42 426.53 C 692.24 430.57 691.37 434.55 689.89 438.32 C 689.67 445.18 685.24 450.65 682.66 456.73 C 681.37 459.30 680.28 462.30 677.60 463.75 C 680.37 458.11 683.17 452.50 685.95 446.86 C 688.92 440.79 689.90 434.05 690.83 427.42 Z" />
<path fill="#020202" opacity="0.50" d=" M 767.88 466.14 C 771.79 467.19 776.47 467.51 778.94 471.23 C 775.14 469.80 771.13 468.66 767.88 466.14 Z" />
</g>
<g id="#02020292">
<path fill="#020202" opacity="0.57" d=" M 744.61 272.32 C 745.09 272.27 746.04 272.19 746.52 272.15 C 746.84 276.91 747.15 281.68 747.67 286.44 C 746.22 286.31 743.75 287.68 743.91 285.28 C 744.68 285.22 746.23 285.10 747.00 285.04 C 745.98 280.84 745.26 276.58 744.61 272.32 Z" />
</g>
<g id="#0202028d">
<path fill="#020202" opacity="0.55" d=" M 259.03 279.92 C 259.87 277.68 261.40 275.82 262.97 274.06 C 258.23 285.17 253.61 296.41 251.11 308.28 C 249.23 314.86 248.58 321.68 248.46 328.50 L 247.77 328.82 C 248.21 320.37 247.88 311.63 251.10 303.64 C 252.44 295.34 255.98 287.69 259.03 279.92 Z" />
</g>
<g id="#0303037e">
<path fill="#030303" opacity="0.49" d=" M 695.31 302.47 C 697.62 303.16 700.11 303.56 702.17 304.89 C 704.76 307.99 703.90 312.36 702.74 315.87 C 701.07 320.63 699.51 325.45 698.91 330.48 C 702.09 329.27 705.28 327.98 708.16 326.13 C 706.97 327.54 706.05 329.50 704.13 330.03 C 701.84 330.71 699.44 330.83 697.09 331.10 C 698.77 325.97 700.43 320.81 701.60 315.54 C 702.16 312.51 702.82 309.31 701.97 306.27 C 700.10 304.48 697.57 303.65 695.31 302.47 Z" />
</g>
<g id="#0101016d">
<path fill="#010101" opacity="0.43" d=" M 781.47 314.28 C 782.88 311.78 784.44 309.37 785.85 306.87 C 785.22 310.66 783.23 314.00 780.64 316.78 C 780.87 315.93 781.15 315.10 781.47 314.28 Z" />
</g>
<g id="#03030386">
<path fill="#030303" opacity="0.53" d=" M 721.58 310.15 C 722.98 309.29 724.57 308.18 726.30 308.78 C 729.84 309.75 733.42 310.80 736.67 312.53 C 738.36 313.33 738.58 315.40 738.77 317.05 C 739.18 323.11 737.36 329.01 736.82 335.01 C 737.25 334.92 738.12 334.76 738.55 334.67 C 738.41 335.24 738.13 336.37 737.99 336.94 C 737.24 336.89 735.73 336.79 734.97 336.74 C 735.61 330.45 737.71 324.31 737.48 317.95 C 737.51 315.71 736.29 313.80 735.07 312.04 C 730.55 311.49 726.17 309.85 721.58 310.15 Z" />
</g>
<g id="#0101018d">
<path fill="#010101" opacity="0.55" d=" M 865.39 320.35 C 865.98 316.89 866.75 313.43 868.43 310.31 C 867.62 318.30 864.63 325.83 863.47 333.76 C 863.04 333.97 862.20 334.38 861.78 334.59 C 862.69 329.77 864.55 325.19 865.39 320.35 Z" />
</g>
<g id="#02020283">
<path fill="#020202" opacity="0.51" d=" M 631.49 315.59 C 633.40 315.97 635.32 316.35 637.24 316.75 C 644.08 321.52 653.04 322.90 658.79 329.21 C 649.95 325.40 642.00 319.65 632.66 316.99 C 632.37 316.64 631.79 315.94 631.49 315.59 Z" />
</g>
<g id="#0404047e">
<path fill="#040404" opacity="0.49" d=" M 587.19 322.30 C 590.67 318.76 595.55 317.26 600.28 316.27 C 596.08 318.63 591.63 320.47 587.19 322.30 Z" />
</g>
<g id="#01010176">
<path fill="#010101" opacity="0.46" d=" M 577.23 328.46 C 578.53 325.31 581.96 324.69 584.90 323.92 C 582.52 325.72 579.86 327.08 577.23 328.46 Z" />
</g>
<g id="#0404048d">
<path fill="#040404" opacity="0.55" d=" M 740.13 325.14 L 740.96 324.79 L 741.79 325.14 L 742.14 325.97 L 741.80 326.80 L 740.97 327.15 L 740.14 326.80 L 739.79 325.97 L 740.13 325.14 Z" />
<path fill="#040404" opacity="0.55" d=" M 582.30 346.33 C 583.25 344.38 585.03 343.04 586.68 341.71 C 584.76 344.13 583.69 347.04 583.41 350.11 C 582.90 348.89 582.37 347.65 582.30 346.33 Z" />
</g>
<g id="#0202028a">
<path fill="#020202" opacity="0.54" d=" M 167.06 326.79 C 169.37 331.49 169.53 336.85 171.22 341.76 C 172.70 346.14 173.59 350.67 174.36 355.22 L 174.50 355.98 C 171.99 349.94 170.76 343.50 168.78 337.28 C 167.68 333.89 167.23 330.34 167.06 326.79 Z" />
</g>
<g id="#02020278">
<path fill="#020202" opacity="0.47" d=" M 593.47 337.16 C 601.12 332.56 610.38 331.95 619.08 332.21 C 625.84 332.39 632.28 334.77 638.25 337.79 C 632.55 336.29 627.00 333.84 621.03 333.66 C 616.12 333.51 611.22 333.54 606.32 333.68 C 602.26 335.55 597.87 336.49 593.47 337.16 Z" />
</g>
<g id="#0202027d">
<path fill="#020202" opacity="0.49" d=" M 495.94 373.07 C 504.47 370.92 513.34 371.14 522.07 371.30 C 529.52 371.46 536.94 373.25 543.66 376.47 C 538.88 375.73 534.17 374.60 529.48 373.43 C 523.76 371.96 517.83 372.86 512.01 372.59 C 504.32 372.14 496.87 374.42 489.52 376.32 C 481.16 379.17 472.81 382.07 464.28 384.34 C 467.06 382.64 470.05 381.28 473.15 380.25 C 480.73 377.83 488.09 374.64 495.94 373.07 Z" />
</g>
<g id="#090909ac">
<path fill="#090909" opacity="0.67" d=" M 466.10 374.27 L 466.92 374.27 L 467.34 374.99 L 466.92 375.70 L 466.10 375.70 L 465.69 374.99 L 466.10 374.27 Z" />
</g>
<g id="#0404047c">
<path fill="#040404" opacity="0.49" d=" M 632.40 376.96 C 633.99 377.20 635.60 377.42 637.17 377.82 C 638.45 383.74 635.65 389.49 633.94 395.03 C 634.85 389.56 635.31 384.04 635.29 378.51 C 633.90 379.06 632.53 379.62 631.18 380.22 C 631.58 379.13 631.98 378.04 632.40 376.96 Z" />
</g>
<g id="#00000027">
<path fill="#000000" opacity="0.15" d=" M 798.61 380.52 C 802.04 380.02 805.52 379.68 809.00 379.75 C 817.66 379.91 826.33 379.85 835.00 379.82 C 839.80 379.65 844.61 379.78 849.37 380.52 C 838.94 381.52 828.46 380.79 818.00 380.99 C 811.53 381.00 805.05 381.26 798.61 380.52 Z" />
</g>
<g id="#0404046a">
<path fill="#040404" opacity="0.42" d=" M 866.31 394.28 C 867.42 394.21 868.55 394.14 869.68 394.08 C 869.77 394.65 869.94 395.78 870.02 396.35 L 869.30 396.41 C 867.84 396.52 866.39 396.64 864.95 396.84 C 865.39 395.98 865.85 395.13 866.31 394.28 Z" />
</g>
<g id="#0101017d">
<path fill="#010101" opacity="0.49" d=" M 740.06 400.90 C 744.78 402.91 749.05 406.01 754.18 407.00 C 756.20 408.03 758.20 409.15 760.37 409.88 C 770.07 412.67 779.93 415.04 789.95 416.40 C 796.27 416.24 802.64 416.82 808.93 416.05 C 819.56 413.94 830.21 411.82 840.59 408.62 C 841.19 407.88 841.81 407.14 842.43 406.40 C 843.65 406.38 844.88 406.36 846.13 406.35 C 836.00 412.43 824.20 414.37 812.82 416.75 C 806.28 418.03 799.58 417.76 792.97 417.75 C 785.64 417.75 778.49 415.99 771.39 414.39 C 764.22 412.78 757.49 409.79 750.66 407.19 C 746.78 405.73 743.22 403.56 740.06 400.90 Z" />
</g>
<g id="#03030370">
<path fill="#030303" opacity="0.44" d=" M 732.12 419.68 C 735.45 420.98 738.84 422.23 741.85 424.23 C 738.27 423.57 734.01 423.32 732.12 419.68 Z" />
</g>
<g id="#01010193">
<path fill="#010101" opacity="0.58" d=" M 265.26 424.83 C 265.90 426.67 266.89 428.54 266.74 430.55 C 265.84 432.29 264.12 433.39 262.71 434.68 C 262.07 432.79 261.45 430.91 260.77 429.04 C 262.19 430.17 263.61 431.30 265.03 432.43 C 265.11 429.90 265.18 427.36 265.26 424.83 Z" />
</g>
<g id="#0101017b">
<path fill="#010101" opacity="0.48" d=" M 209.97 438.93 C 212.39 442.38 214.33 446.13 216.15 449.93 C 212.52 447.33 211.10 443.04 209.97 438.93 Z" />
</g>
<g id="#04040481">
<path fill="#040404" opacity="0.51" d=" M 602.29 476.46 C 608.37 474.70 614.03 471.75 619.30 468.28 C 616.89 470.92 614.18 473.40 610.85 474.82 C 604.15 477.82 596.67 477.90 589.53 478.98 C 590.08 480.26 590.64 481.55 591.27 482.82 C 590.28 482.11 589.30 481.41 588.34 480.71 C 588.36 479.64 588.39 478.57 588.42 477.51 C 593.05 477.46 597.77 477.68 602.29 476.46 Z" />
</g>
<g id="#020202a6">
<path fill="#020202" opacity="0.65" d=" M 612.27 495.88 C 619.35 496.66 626.55 496.71 633.64 495.87 C 633.70 496.32 633.82 497.23 633.88 497.69 C 627.01 497.66 620.14 497.68 613.27 497.68 C 613.02 497.23 612.52 496.33 612.27 495.88 Z" />
</g>
<g id="#01010187">
<path fill="#010101" opacity="0.53" d=" M 443.94 506.04 C 451.27 508.75 458.01 512.75 465.12 515.95 C 473.30 519.23 481.53 522.64 488.91 527.55 C 488.58 527.42 487.92 527.15 487.59 527.02 C 479.91 523.83 472.32 520.41 464.65 517.21 C 457.65 513.68 450.20 510.85 443.94 506.04 Z" />
</g>
<g id="#0201027f">
<path fill="#020102" opacity="0.50" d=" M 332.01 604.01 C 333.13 604.23 334.27 604.43 335.41 604.64 C 337.71 606.27 339.84 608.15 341.74 610.25 C 338.24 608.59 335.07 606.36 332.01 604.01 Z" />
</g>
<g id="#0606067b">
<path fill="#060606" opacity="0.48" d=" M 588.03 650.04 C 590.37 647.69 592.69 645.33 595.03 642.98 C 594.44 644.71 593.85 646.44 593.27 648.18 C 591.52 648.79 589.77 649.42 588.03 650.04 Z" />
</g>
<g id="#06060686">
<path fill="#060606" opacity="0.53" d=" M 664.38 678.50 C 669.03 672.51 674.68 667.40 680.10 662.12 C 679.95 663.31 679.80 664.51 679.67 665.71 C 678.49 665.85 677.32 665.99 676.15 666.15 C 675.87 667.21 675.60 668.29 675.34 669.37 C 671.59 672.31 668.11 675.56 664.38 678.50 Z" />
</g>
<g id="#02020282">
<path fill="#020202" opacity="0.51" d=" M 549.96 711.13 C 553.45 708.69 557.13 706.54 561.11 705.01 C 557.35 708.05 553.25 710.62 549.18 713.20 C 549.37 712.69 549.77 711.65 549.96 711.13 Z" />
</g>
<g id="#06060683">
<path fill="#060606" opacity="0.51" d=" M 398.34 842.14 L 399.35 842.02 C 399.89 851.67 399.60 861.34 399.65 871.00 C 399.65 892.67 399.66 914.33 399.65 936.00 C 399.75 942.58 399.95 949.20 398.97 955.73 L 398.89 956.41 C 397.96 949.31 398.42 942.14 398.35 935.00 C 398.34 904.05 398.35 873.10 398.34 842.14 Z" />
</g>
<g id="#000101ff">
<path fill="#000101" opacity="1.00" d=" M 652.99 842.34 C 662.33 842.07 671.68 842.17 681.02 842.23 C 680.56 845.79 680.26 849.38 680.26 852.98 C 680.46 868.99 680.30 884.99 680.36 901.00 C 680.44 906.86 679.83 912.77 680.65 918.61 C 680.96 921.33 683.04 923.29 684.81 925.18 C 686.50 926.87 688.16 928.60 689.72 930.43 C 696.56 930.68 703.43 930.74 710.27 930.30 C 703.83 929.20 697.30 929.74 690.81 929.50 C 697.27 929.29 703.74 929.32 710.21 929.52 C 713.08 926.91 715.85 924.18 718.45 921.30 C 718.16 894.93 718.54 868.56 718.25 842.20 C 728.08 842.17 737.91 842.16 747.74 842.24 C 747.57 862.49 747.72 882.75 747.66 903.00 C 747.54 907.73 748.35 912.59 746.94 917.20 C 745.79 921.00 745.30 924.94 744.84 928.87 C 744.24 933.88 742.03 938.49 739.92 943.00 C 736.62 946.90 733.02 951.03 728.08 952.83 C 723.16 954.10 718.15 955.20 713.06 955.41 C 708.37 955.59 703.68 955.27 699.00 955.32 C 694.31 955.30 689.62 955.67 684.95 955.31 C 680.51 954.96 676.13 954.15 671.74 953.51 C 665.53 950.15 661.14 944.46 657.51 938.56 C 654.73 933.90 653.65 928.40 653.61 923.03 C 653.66 900.77 653.75 878.51 653.57 856.26 C 653.52 851.61 653.40 846.97 652.99 842.34 Z" />
</g>
<g id="#0000008b">
<path fill="#000000" opacity="0.55" d=" M 681.02 842.23 L 681.11 841.54 C 681.44 844.67 681.70 847.83 681.70 850.99 C 681.59 868.99 681.68 887.00 681.65 905.00 C 681.66 908.99 681.33 913.01 681.80 916.99 C 682.16 919.91 683.56 922.55 684.81 925.18 C 683.04 923.29 680.96 921.33 680.65 918.61 C 679.83 912.77 680.44 906.86 680.36 901.00 C 680.30 884.99 680.46 868.99 680.26 852.98 C 680.26 849.38 680.56 845.79 681.02 842.23 Z" />
</g>
<g id="#020202ff">
<path fill="#020202" opacity="1.00" d=" M 756.60 842.47 C 767.39 841.88 778.21 842.30 789.02 842.21 C 790.48 845.70 791.90 849.22 793.49 852.67 C 796.04 858.41 800.81 862.81 803.27 868.61 C 804.72 871.09 805.58 874.94 808.92 875.43 C 811.14 872.36 812.58 868.82 814.73 865.71 C 816.56 863.00 818.89 860.58 820.13 857.51 C 822.25 852.44 823.96 846.96 827.87 842.92 C 829.73 842.00 831.91 842.21 833.94 842.11 C 842.63 842.20 851.33 842.12 860.02 842.29 C 854.07 849.72 851.70 859.31 845.56 866.60 C 842.33 870.63 841.18 875.85 838.01 879.92 C 834.52 884.39 832.44 889.71 829.66 894.61 C 828.87 896.25 827.61 897.95 828.10 899.89 C 828.99 904.89 831.83 909.27 834.67 913.39 C 837.65 917.49 839.82 922.11 842.99 926.07 C 846.16 929.87 847.22 934.90 850.19 938.83 C 854.16 944.24 857.27 950.23 861.36 955.56 C 850.03 955.78 838.70 955.63 827.37 955.65 C 827.27 954.52 827.17 953.39 827.08 952.28 C 824.82 949.30 822.83 946.13 821.02 942.87 C 818.47 938.24 815.12 934.10 812.79 929.34 C 811.49 926.61 809.41 924.39 807.13 922.46 C 803.56 928.76 799.87 934.99 796.02 941.13 C 793.31 945.41 791.00 949.95 789.34 954.76 C 789.06 953.84 788.78 952.92 788.51 952.02 C 788.43 952.85 788.27 954.51 788.19 955.34 C 777.99 955.41 767.77 955.69 757.58 955.15 C 759.96 949.04 762.81 943.01 767.00 937.92 C 768.52 936.03 769.73 933.92 770.77 931.75 C 773.24 926.44 776.76 921.73 779.61 916.63 C 782.26 911.91 785.73 907.66 787.85 902.66 C 789.79 897.36 787.17 891.62 782.96 888.26 C 782.00 884.79 780.69 881.39 778.37 878.59 C 775.26 874.81 774.30 869.75 771.03 866.07 C 766.91 861.36 765.71 854.91 761.85 850.03 C 759.94 847.62 758.11 845.15 756.60 842.47 M 839.21 867.26 C 839.20 867.88 839.18 869.14 839.16 869.76 C 839.91 869.84 841.41 870.00 842.16 870.08 C 842.13 869.31 842.08 867.77 842.05 867.00 C 841.34 867.07 839.92 867.19 839.21 867.26 Z" />
</g>
<g id="#04040476">
<path fill="#040404" opacity="0.46" d=" M 353.86 843.00 C 360.28 842.97 366.36 845.70 370.98 850.08 C 366.00 847.18 360.31 845.97 355.10 843.63 C 354.79 843.48 354.17 843.16 353.86 843.00 Z" />
</g>
<g id="#000000c8">
<path fill="#000000" opacity="0.78" d=" M 633.55 842.64 C 634.64 852.06 634.04 861.54 634.16 871.00 C 634.24 899.34 633.99 927.69 634.28 956.03 C 625.24 955.17 616.14 956.32 607.12 955.22 C 615.77 955.15 624.41 955.26 633.06 955.10 C 633.14 926.73 633.06 898.37 633.09 870.00 C 633.15 860.88 632.77 851.74 633.55 842.64 Z" />
</g>
<g id="#06060682">
<path fill="#060606" opacity="0.51" d=" M 652.54 850.72 C 651.62 847.92 650.95 844.84 652.99 842.34 C 653.40 846.97 653.52 851.61 653.57 856.26 C 652.86 855.67 652.19 855.07 651.54 854.46 C 651.74 853.17 652.15 851.94 652.54 850.72 Z" />
</g>
<g id="#0000005a">
<path fill="#000000" opacity="0.35" d=" M 380.93 880.00 C 380.81 875.30 380.65 870.55 381.69 865.93 C 382.21 868.92 382.51 871.96 382.47 875.01 C 382.34 887.00 382.45 899.00 382.40 911.00 C 382.31 917.36 382.94 923.79 381.67 930.09 C 380.37 924.47 381.00 918.70 380.95 913.00 C 380.91 902.00 380.96 891.00 380.93 880.00 Z" />
</g>
<g id="#02020267">
<path fill="#020202" opacity="0.40" d=" M 316.46 867.35 C 325.32 867.35 334.19 867.27 343.04 867.29 C 347.10 867.13 350.69 869.84 352.66 873.22 C 354.18 876.22 353.96 879.71 354.04 882.98 C 353.93 890.32 353.95 897.66 353.95 905.00 C 353.91 910.84 354.69 916.85 352.76 922.50 C 353.81 911.69 353.12 900.83 353.39 890.01 C 353.43 886.04 353.65 882.05 353.05 878.12 C 352.48 874.13 349.81 870.46 346.12 868.83 C 343.24 867.69 340.08 867.76 337.04 867.70 C 330.37 867.74 323.71 867.88 317.04 868.01 C 315.80 874.87 315.43 881.84 315.50 888.81 C 315.28 890.19 314.89 891.54 314.49 892.90 C 314.40 884.37 313.22 875.49 316.46 867.35 Z" />
</g>
<g id="#030303a1">
<path fill="#030303" opacity="0.63" d=" M 839.21 867.26 C 839.92 867.19 841.34 867.07 842.05 867.00 C 842.08 867.77 842.13 869.31 842.16 870.08 C 841.41 870.00 839.91 869.84 839.16 869.76 C 839.18 869.14 839.20 867.88 839.21 867.26 Z" />
</g>
<g id="#0201017d">
<path fill="#020101" opacity="0.49" d=" M 206.45 895.55 C 206.48 886.13 205.74 876.66 206.94 867.29 C 208.24 876.21 207.43 885.24 207.77 894.22 C 218.67 894.56 229.58 894.06 240.48 894.54 C 238.11 895.43 235.59 895.87 233.06 895.78 C 224.19 895.52 215.32 895.78 206.45 895.55 Z" />
</g>
<g id="#0303036a">
<path fill="#030303" opacity="0.42" d=" M 239.97 870.11 C 240.88 870.78 241.78 871.45 242.69 872.15 C 242.64 878.39 242.66 884.63 242.69 890.88 C 242.23 890.81 241.31 890.68 240.86 890.61 C 241.53 883.80 242.24 876.71 239.97 870.11 Z" />
</g>
<g id="#0808088b">
<path fill="#080808" opacity="0.55" d=" M 315.15 902.01 C 314.88 899.11 315.07 896.19 315.88 893.40 C 317.45 904.21 317.04 915.25 315.88 926.08 C 315.53 925.14 315.22 924.20 314.88 923.28 C 314.80 922.14 314.82 921.00 314.76 919.87 C 315.34 913.94 315.67 907.96 315.15 902.01 Z" />
</g>
<g id="#02020277">
<path fill="#020202" opacity="0.47" d=" M 744.84 928.87 C 745.30 924.94 745.79 921.00 746.94 917.20 C 746.81 921.87 746.76 926.55 746.36 931.22 C 743.10 934.60 744.13 940.44 739.92 943.00 C 742.03 938.49 744.24 933.88 744.84 928.87 Z" />
</g>
<g id="#0000003e">
<path fill="#000000" opacity="0.24" d=" M 206.63 943.00 C 206.94 935.50 205.93 927.92 207.49 920.51 C 207.95 924.65 208.14 928.82 208.05 933.00 C 207.87 940.78 208.46 948.60 207.47 956.35 C 206.67 951.94 206.44 947.46 206.63 943.00 Z" />
</g>
<g id="#03030369">
<path fill="#030303" opacity="0.41" d=" M 428.17 929.72 C 436.43 929.02 444.72 929.44 453.00 929.35 C 461.29 929.48 469.63 928.86 477.89 929.92 C 478.05 935.17 477.67 940.44 476.43 945.56 C 475.72 948.16 476.34 950.81 476.99 953.36 C 476.47 954.20 475.96 955.06 475.44 955.93 C 475.16 947.56 475.42 939.18 476.40 930.86 C 460.31 930.41 444.22 930.81 428.13 930.64 L 428.17 929.72 Z" />
</g>
<g id="#03030394">
<path fill="#030303" opacity="0.58" d=" M 566.00 955.19 C 565.20 950.58 565.24 945.85 566.58 941.34 C 566.88 941.96 567.48 943.19 567.79 943.81 C 567.08 945.13 566.39 946.47 565.71 947.81 C 566.60 950.40 567.44 953.00 568.23 955.63 C 558.11 955.63 547.97 956.00 537.87 955.38 C 547.25 955.29 556.63 955.47 566.00 955.19 Z" />
</g>
<g id="#01020197">
<path fill="#010201" opacity="0.59" d=" M 671.74 953.51 C 676.13 954.15 680.51 954.96 684.95 955.31 C 689.62 955.67 694.31 955.30 699.00 955.32 C 703.68 955.27 708.37 955.59 713.06 955.41 C 718.15 955.20 723.16 954.10 728.08 952.83 C 725.57 955.71 721.45 955.39 717.99 955.66 C 705.98 955.81 693.96 955.57 681.95 955.78 C 678.39 955.98 674.92 955.04 671.74 953.51 Z" />
</g>
<g id="#03030388">
<path fill="#030303" opacity="0.53" d=" M 295.25 981.34 C 298.85 982.83 302.71 983.49 306.61 983.48 C 309.52 987.46 310.08 992.38 309.80 997.18 C 309.62 996.90 309.25 996.33 309.07 996.04 C 307.97 992.38 308.50 988.05 306.11 984.90 C 303.01 983.13 299.19 983.50 295.74 983.05 C 295.72 983.81 295.67 985.33 295.64 986.08 C 296.08 986.47 296.95 987.24 297.38 987.63 C 299.27 987.13 301.17 986.64 303.06 986.16 C 303.98 992.48 305.05 998.78 306.17 1005.07 C 302.55 1005.32 298.93 1005.53 295.31 1005.72 C 295.61 1000.11 296.47 994.55 297.52 989.04 C 296.37 988.74 295.22 988.46 294.07 988.18 C 293.13 997.15 291.39 1006.01 288.71 1014.63 C 288.55 1012.25 288.40 1009.89 288.29 1007.53 C 289.22 1006.71 290.16 1005.90 291.08 1005.08 C 291.28 999.20 292.08 993.36 292.59 987.50 C 293.38 986.94 294.18 986.39 294.98 985.85 C 295.07 984.33 295.16 982.83 295.25 981.34 M 297.79 991.95 C 297.93 996.08 297.42 1000.21 296.05 1004.13 C 298.88 1004.15 301.72 1004.18 304.56 1004.20 C 303.93 998.54 302.33 993.06 301.67 987.42 C 300.39 988.94 299.09 990.44 297.79 991.95 Z" />
</g>
<g id="#040404fc">
<path fill="#040404" opacity="1.00" d=" M 234.26 983.23 C 241.42 983.27 248.58 983.23 255.74 983.31 C 256.75 986.35 258.31 989.47 257.77 992.78 C 257.14 995.27 255.75 997.47 254.52 999.71 C 255.60 1003.05 257.12 1006.38 257.20 1009.94 C 256.89 1012.13 254.04 1011.90 252.46 1012.65 C 252.25 1009.11 251.64 1005.58 249.98 1002.41 C 245.89 1002.78 241.77 1002.22 238.04 1000.45 C 238.49 1001.60 238.94 1002.78 239.39 1003.96 C 238.81 1007.46 238.51 1011.01 238.36 1014.56 C 237.06 1014.56 235.77 1014.57 234.47 1014.59 C 234.21 1004.14 234.53 993.68 234.26 983.23 M 238.73 987.10 C 238.60 990.99 238.60 994.89 238.75 998.79 C 242.54 998.66 246.49 999.26 250.19 998.15 C 253.20 995.42 251.72 990.71 252.01 987.13 C 247.58 987.14 243.16 987.14 238.73 987.10 Z" />
<path fill="#040404" opacity="1.00" d=" M 397.61 987.53 C 398.92 985.23 401.27 983.31 404.02 983.29 C 409.00 982.97 414.00 983.35 419.00 983.27 C 421.19 990.34 420.26 997.80 420.42 1005.07 C 420.57 1007.85 419.33 1010.38 418.05 1012.77 C 411.65 1012.57 405.24 1012.56 398.84 1012.78 C 396.07 1007.60 397.02 1001.62 396.87 996.00 C 396.94 993.17 396.66 990.23 397.61 987.53 M 402.97 987.14 C 402.86 992.44 402.64 997.75 402.74 1003.06 C 402.89 1005.32 402.83 1007.91 404.47 1009.71 C 407.63 1010.75 411.02 1010.31 414.29 1010.33 C 414.47 1002.59 414.55 994.84 414.23 987.11 C 410.47 987.13 406.72 987.14 402.97 987.14 Z" />
<path fill="#040404" opacity="1.00" d=" M 451.94 983.20 C 455.16 983.23 458.39 983.26 461.62 983.30 C 461.78 983.89 462.11 985.07 462.27 985.66 C 464.51 992.63 465.83 999.84 467.79 1006.89 C 468.10 1008.69 469.57 1009.82 470.93 1010.88 C 471.75 1001.69 471.30 992.44 471.25 983.23 C 473.21 983.21 475.17 983.20 477.14 983.20 C 477.62 993.59 477.25 1003.99 477.38 1014.38 C 473.59 1014.54 469.80 1014.66 466.02 1014.79 C 464.89 1010.90 463.40 1007.13 461.99 1003.34 C 460.40 998.71 459.44 993.90 458.92 989.04 C 458.15 988.95 456.60 988.76 455.82 988.67 C 455.56 997.36 455.78 1006.05 455.77 1014.74 C 454.54 1014.73 453.31 1014.74 452.09 1014.75 C 451.53 1004.25 451.74 993.71 451.94 983.20 Z" />
<path fill="#040404" opacity="1.00" d=" M 835.98 983.22 C 842.18 983.24 848.38 983.15 854.58 983.47 C 856.20 984.86 857.82 986.27 859.45 987.67 C 859.75 994.38 859.53 1001.09 859.65 1007.80 C 857.38 1009.67 855.23 1012.32 852.04 1012.35 C 846.84 1012.62 841.63 1012.29 836.43 1012.52 C 835.25 1002.80 835.89 992.98 835.98 983.22 M 839.59 987.40 C 839.77 994.06 839.93 1000.74 839.49 1007.40 C 841.39 1008.90 843.36 1010.77 845.99 1010.55 C 848.85 1010.87 851.43 1009.45 853.86 1008.16 C 853.45 1001.19 853.60 994.20 853.74 987.23 C 849.02 986.86 844.29 986.91 839.59 987.40 Z" />
</g>
<g id="#050505fd">
<path fill="#050505" opacity="1.00" d=" M 295.74 983.05 C 299.19 983.50 303.01 983.13 306.11 984.90 C 308.50 988.05 307.97 992.38 309.07 996.04 C 309.25 996.33 309.62 996.90 309.80 997.18 C 309.99 997.46 310.37 998.01 310.56 998.29 C 310.68 1000.50 310.74 1002.73 310.81 1004.97 C 312.01 1006.97 314.84 1009.33 312.85 1011.76 C 311.00 1013.23 308.71 1013.96 306.57 1014.88 C 306.57 1012.66 306.58 1010.46 306.60 1008.25 C 302.83 1008.37 299.06 1008.38 295.30 1008.32 C 295.14 1010.45 294.98 1012.59 294.81 1014.74 C 292.77 1014.69 290.74 1014.65 288.71 1014.63 C 291.39 1006.01 293.13 997.15 294.07 988.18 C 295.22 988.46 296.37 988.74 297.52 989.04 C 296.47 994.55 295.61 1000.11 295.31 1005.72 C 298.93 1005.53 302.55 1005.32 306.17 1005.07 C 305.05 998.78 303.98 992.48 303.06 986.16 C 301.17 986.64 299.27 987.13 297.38 987.63 C 296.95 987.24 296.08 986.47 295.64 986.08 C 295.67 985.33 295.72 983.81 295.74 983.05 Z" />
</g>
<g id="#050505fe">
<path fill="#050505" opacity="1.00" d=" M 342.33 987.08 C 342.28 985.34 343.37 983.49 345.27 983.45 C 351.37 982.83 357.52 983.39 363.64 983.34 C 364.08 984.21 364.53 985.09 364.99 985.98 C 364.12 986.36 363.25 986.76 362.39 987.16 C 362.19 988.96 362.00 990.78 361.81 992.60 L 361.72 993.43 C 361.53 991.29 361.34 989.16 361.14 987.04 C 356.80 987.14 352.47 987.15 348.13 987.15 C 348.14 994.30 347.76 1001.46 348.27 1008.61 C 349.12 1009.25 349.98 1009.92 350.84 1010.59 C 354.66 1010.69 358.50 1010.09 361.86 1008.17 C 361.82 1006.39 361.78 1004.63 361.77 1002.88 C 359.35 1001.85 356.86 1001.00 354.33 1000.28 C 354.26 999.92 354.12 999.20 354.05 998.85 C 357.94 998.72 361.84 998.74 365.74 998.90 C 365.66 1002.85 365.64 1006.81 365.67 1010.77 C 361.70 1011.84 357.82 1013.22 353.81 1014.08 C 350.69 1015.00 347.88 1012.95 345.11 1011.87 C 343.63 1009.14 342.04 1006.29 342.21 1003.08 C 342.22 997.75 342.03 992.40 342.33 987.08 M 344.17 991.19 L 343.83 992.02 L 344.18 992.85 L 345.01 993.19 L 345.84 992.84 L 346.18 992.00 L 345.83 991.18 L 345.00 990.84 L 344.17 991.19 Z" />
<path fill="#050505" opacity="1.00" d=" M 618.27 983.20 C 620.44 983.24 622.60 983.29 624.78 983.36 C 624.70 984.41 624.63 985.48 624.56 986.56 C 623.68 986.97 622.81 987.40 621.94 987.84 C 622.77 988.82 623.60 989.82 624.43 990.84 C 624.34 992.82 624.25 994.81 624.17 996.82 C 628.49 996.48 633.57 997.95 637.29 995.16 C 637.49 994.93 637.90 994.46 638.11 994.23 C 638.37 990.65 638.35 986.86 640.46 983.77 C 642.24 993.13 640.72 1002.69 641.62 1012.13 L 641.66 1012.84 C 639.77 1012.76 637.88 1012.70 636.01 1012.66 C 636.03 1009.41 636.48 1006.17 637.57 1003.11 C 636.73 1002.30 635.90 1001.50 635.07 1000.72 C 631.69 1000.70 628.31 1000.71 624.93 1000.77 C 624.36 1001.52 623.80 1002.28 623.26 1003.05 C 623.75 1005.62 624.55 1008.21 624.27 1010.87 C 623.96 1013.61 620.78 1013.94 618.79 1014.97 C 617.88 1004.40 618.68 993.79 618.27 983.20 Z" />
</g>
<g id="#040404fb">
<path fill="#040404" opacity="1.00" d=" M 561.87 983.16 C 568.16 983.31 574.45 983.23 580.75 983.31 C 581.61 985.78 582.50 988.25 583.37 990.73 C 581.32 990.79 579.29 990.86 577.26 990.93 C 577.19 989.65 577.12 988.37 577.06 987.11 C 573.43 987.15 569.80 987.18 566.17 987.20 C 565.30 988.47 564.43 989.74 563.57 991.03 C 565.00 992.90 566.45 994.76 567.95 996.60 C 573.55 996.61 578.86 998.41 583.77 1001.00 C 583.63 1003.35 583.52 1005.71 583.41 1008.08 C 583.11 1006.40 582.83 1004.72 582.57 1003.05 C 582.10 1006.25 581.46 1009.43 580.78 1012.61 C 578.01 1013.77 575.04 1014.64 572.02 1014.10 C 568.10 1013.73 564.16 1013.45 560.34 1012.46 C 559.63 1010.64 558.90 1008.84 558.16 1007.04 C 558.75 1006.89 559.91 1006.57 560.50 1006.41 C 560.83 1005.95 561.49 1005.03 561.83 1004.56 C 562.15 1004.48 562.80 1004.32 563.12 1004.24 C 564.00 1006.31 564.84 1008.41 565.64 1010.53 C 568.64 1010.43 571.71 1010.62 574.67 1009.95 C 576.91 1008.94 576.96 1006.07 577.83 1004.08 C 576.56 1002.95 575.30 1001.83 574.05 1000.71 C 570.80 1000.70 567.55 1000.69 564.30 1000.65 C 562.82 999.05 561.34 997.47 559.84 995.92 C 559.36 991.54 559.37 986.97 561.87 983.16 Z" />
</g>
<g id="#030303a6">
<path fill="#030303" opacity="0.65" d=" M 636.31 983.31 C 638.15 983.24 640.00 983.18 641.85 983.15 C 641.81 992.80 642.18 1002.48 641.62 1012.13 C 640.72 1002.69 642.24 993.13 640.46 983.77 C 638.35 986.86 638.37 990.65 638.11 994.23 C 637.90 994.46 637.49 994.93 637.29 995.16 C 637.02 991.20 636.64 987.25 636.31 983.31 Z" />
</g>
<g id="#010101fc">
<path fill="#010101" opacity="1.00" d=" M 680.70 983.57 C 682.72 983.42 684.75 983.28 686.79 983.15 C 685.51 986.61 684.76 990.27 684.96 993.98 C 685.19 1000.24 685.15 1006.50 684.82 1012.76 C 683.61 1012.74 682.41 1012.74 681.22 1012.75 C 680.98 1003.02 681.62 993.27 680.70 983.57 Z" />
</g>
<g id="#030303fd">
<path fill="#030303" opacity="1.00" d=" M 724.16 983.36 C 731.19 983.64 738.23 983.51 745.26 983.62 C 745.24 984.50 745.21 986.25 745.20 987.12 C 739.46 987.13 733.73 987.14 728.00 987.17 C 727.99 990.38 728.26 993.67 729.88 996.53 C 729.71 997.52 729.54 998.53 729.38 999.55 C 729.06 1001.62 728.56 1003.72 728.78 1005.85 C 729.61 1007.49 730.78 1008.95 731.87 1010.45 C 736.29 1009.90 740.72 1009.35 745.12 1008.63 C 745.16 1009.55 745.23 1011.40 745.26 1012.32 C 738.36 1012.43 731.47 1012.35 724.58 1012.50 C 724.01 1002.79 724.61 993.07 724.16 983.36 Z" />
</g>
<g id="#020202fd">
<path fill="#020202" opacity="1.00" d=" M 783.15 983.20 C 784.36 983.19 785.59 983.19 786.82 983.20 C 786.90 989.14 786.87 995.08 786.76 1001.02 C 786.69 1003.74 787.00 1006.49 788.02 1009.04 C 788.18 1009.48 788.50 1010.37 788.66 1010.81 C 793.14 1010.04 798.33 1008.17 802.28 1011.48 C 795.85 1012.62 789.31 1012.29 782.82 1012.35 C 783.09 1002.63 782.76 992.91 783.15 983.20 Z" />
</g>
<g id="#030303fc">
<path fill="#030303" opacity="1.00" d=" M 177.75 983.68 C 183.75 983.59 189.78 983.21 195.77 983.91 C 197.62 984.87 199.62 985.46 201.69 985.71 C 201.33 994.28 201.80 1002.86 201.32 1011.42 C 194.31 1013.63 186.87 1011.82 179.77 1013.53 C 179.09 1013.07 178.42 1012.63 177.74 1012.20 C 177.54 1002.69 177.55 993.18 177.75 983.68 M 183.27 986.98 C 183.46 994.82 183.30 1002.66 183.47 1010.50 C 186.64 1010.54 189.82 1010.62 192.99 1010.75 C 194.96 1007.78 197.02 1004.66 197.25 1001.01 C 197.94 996.27 196.90 991.53 194.96 987.22 C 191.07 987.09 187.17 986.98 183.27 986.98 M 200.50 986.64 C 199.70 994.11 200.26 1001.64 199.83 1009.14 C 200.15 1009.38 200.80 1009.87 201.13 1010.11 C 201.02 1002.28 201.69 994.41 200.50 986.64 Z" />
</g>
<g id="#050505fb">
<path fill="#050505" opacity="1.00" d=" M 362.39 987.16 C 363.25 986.76 364.12 986.36 364.99 985.98 C 365.23 988.10 365.45 990.22 365.68 992.36 C 364.39 992.43 363.10 992.51 361.81 992.60 C 362.00 990.78 362.19 988.96 362.39 987.16 Z" />
</g>
<g id="#030303d4">
<path fill="#030303" opacity="0.83" d=" M 200.50 986.64 C 201.69 994.41 201.02 1002.28 201.13 1010.11 C 200.80 1009.87 200.15 1009.38 199.83 1009.14 C 200.26 1001.64 199.70 994.11 200.50 986.64 Z" />
</g>
<g id="#060606ae">
<path fill="#060606" opacity="0.68" d=" M 344.17 991.19 L 345.00 990.84 L 345.83 991.18 L 346.18 992.00 L 345.84 992.84 L 345.01 993.19 L 344.18 992.85 L 343.83 992.02 L 344.17 991.19 Z" />
</g>
<g id="#010101d3">
<path fill="#010101" opacity="0.83" d=" M 729.88 996.53 C 733.18 996.40 736.47 996.32 739.78 996.27 C 739.80 996.90 739.85 998.16 739.87 998.79 C 736.37 999.00 732.87 999.23 729.38 999.55 C 729.54 998.53 729.71 997.52 729.88 996.53 Z" />
</g>
<g id="#02020291">
<path fill="#020202" opacity="0.57" d=" M 788.02 1009.04 C 792.91 1008.31 797.87 1008.05 802.82 1008.17 C 802.81 1009.68 802.81 1011.20 802.81 1012.73 C 796.14 1012.67 789.47 1012.92 782.82 1012.35 C 789.31 1012.29 795.85 1012.62 802.28 1011.48 C 798.33 1008.17 793.14 1010.04 788.66 1010.81 C 788.50 1010.37 788.18 1009.48 788.02 1009.04 Z" />
</g>
</svg>
